<?xml version="1.0" encoding="utf-8" standalone="no"?>
<!DOCTYPE svg PUBLIC "-//W3C//DTD SVG 1.1//EN"
  "http://www.w3.org/Graphics/SVG/1.1/DTD/svg11.dtd">
<!-- Created with matplotlib (https://matplotlib.org/) -->
<svg height="576pt" version="1.1" viewBox="0 0 864 576" width="864pt" xmlns="http://www.w3.org/2000/svg" xmlns:xlink="http://www.w3.org/1999/xlink">
 <defs>
  <style type="text/css">
*{stroke-linecap:butt;stroke-linejoin:round;}
  </style>
 </defs>
 <g id="figure_1">
  <g id="patch_1">
   <path d="M 0 576 
L 864 576 
L 864 0 
L 0 0 
z
" style="fill:#ffffff;"/>
  </g>
  <g id="axes_1">
   <g id="patch_2">
    <path d="M 108 504 
L 777.6 504 
L 777.6 69.12 
L 108 69.12 
z
" style="fill:#ffffff;"/>
   </g>
   <g id="PathCollection_1"/>
   <g id="PathCollection_2"/>
   <g id="PathCollection_3"/>
   <g id="PathCollection_4"/>
   <g id="PathCollection_5"/>
   <g id="matplotlib.axis_1">
    <g id="xtick_1">
     <g id="line2d_1">
      <path clip-path="url(#pd8b988c8dc)" d="M 149.85 504 
L 149.85 69.12 
" style="fill:none;stroke:#0000ff;stroke-linecap:square;stroke-opacity:0.1;stroke-width:0.7;"/>
     </g>
     <g id="line2d_2">
      <defs>
       <path d="M 0 0 
L 0 3.5 
" id="mb2e5cda7d4" style="stroke:#000000;stroke-width:0.8;"/>
      </defs>
      <g>
       <use style="stroke:#000000;stroke-width:0.8;" x="149.85" xlink:href="#mb2e5cda7d4" y="504"/>
      </g>
     </g>
     <g id="text_1">
      <!-- Week one -->
      <defs>
       <path d="M 3.328125 72.90625 
L 13.28125 72.90625 
L 28.609375 11.28125 
L 43.890625 72.90625 
L 54.984375 72.90625 
L 70.3125 11.28125 
L 85.59375 72.90625 
L 95.609375 72.90625 
L 77.296875 0 
L 64.890625 0 
L 49.515625 63.28125 
L 33.984375 0 
L 21.578125 0 
z
" id="DejaVuSans-87"/>
       <path d="M 56.203125 29.59375 
L 56.203125 25.203125 
L 14.890625 25.203125 
Q 15.484375 15.921875 20.484375 11.0625 
Q 25.484375 6.203125 34.421875 6.203125 
Q 39.59375 6.203125 44.453125 7.46875 
Q 49.3125 8.734375 54.109375 11.28125 
L 54.109375 2.78125 
Q 49.265625 0.734375 44.1875 -0.34375 
Q 39.109375 -1.421875 33.890625 -1.421875 
Q 20.796875 -1.421875 13.15625 6.1875 
Q 5.515625 13.8125 5.515625 26.8125 
Q 5.515625 40.234375 12.765625 48.109375 
Q 20.015625 56 32.328125 56 
Q 43.359375 56 49.78125 48.890625 
Q 56.203125 41.796875 56.203125 29.59375 
z
M 47.21875 32.234375 
Q 47.125 39.59375 43.09375 43.984375 
Q 39.0625 48.390625 32.421875 48.390625 
Q 24.90625 48.390625 20.390625 44.140625 
Q 15.875 39.890625 15.1875 32.171875 
z
" id="DejaVuSans-101"/>
       <path d="M 9.078125 75.984375 
L 18.109375 75.984375 
L 18.109375 31.109375 
L 44.921875 54.6875 
L 56.390625 54.6875 
L 27.390625 29.109375 
L 57.625 0 
L 45.90625 0 
L 18.109375 26.703125 
L 18.109375 0 
L 9.078125 0 
z
" id="DejaVuSans-107"/>
       <path id="DejaVuSans-32"/>
       <path d="M 30.609375 48.390625 
Q 23.390625 48.390625 19.1875 42.75 
Q 14.984375 37.109375 14.984375 27.296875 
Q 14.984375 17.484375 19.15625 11.84375 
Q 23.34375 6.203125 30.609375 6.203125 
Q 37.796875 6.203125 41.984375 11.859375 
Q 46.1875 17.53125 46.1875 27.296875 
Q 46.1875 37.015625 41.984375 42.703125 
Q 37.796875 48.390625 30.609375 48.390625 
z
M 30.609375 56 
Q 42.328125 56 49.015625 48.375 
Q 55.71875 40.765625 55.71875 27.296875 
Q 55.71875 13.875 49.015625 6.21875 
Q 42.328125 -1.421875 30.609375 -1.421875 
Q 18.84375 -1.421875 12.171875 6.21875 
Q 5.515625 13.875 5.515625 27.296875 
Q 5.515625 40.765625 12.171875 48.375 
Q 18.84375 56 30.609375 56 
z
" id="DejaVuSans-111"/>
       <path d="M 54.890625 33.015625 
L 54.890625 0 
L 45.90625 0 
L 45.90625 32.71875 
Q 45.90625 40.484375 42.875 44.328125 
Q 39.84375 48.1875 33.796875 48.1875 
Q 26.515625 48.1875 22.3125 43.546875 
Q 18.109375 38.921875 18.109375 30.90625 
L 18.109375 0 
L 9.078125 0 
L 9.078125 54.6875 
L 18.109375 54.6875 
L 18.109375 46.1875 
Q 21.34375 51.125 25.703125 53.5625 
Q 30.078125 56 35.796875 56 
Q 45.21875 56 50.046875 50.171875 
Q 54.890625 44.34375 54.890625 33.015625 
z
" id="DejaVuSans-110"/>
      </defs>
      <g transform="translate(124.967969 518.598438)scale(0.1 -0.1)">
       <use xlink:href="#DejaVuSans-87"/>
       <use x="98.798828" xlink:href="#DejaVuSans-101"/>
       <use x="160.322266" xlink:href="#DejaVuSans-101"/>
       <use x="221.845703" xlink:href="#DejaVuSans-107"/>
       <use x="279.755859" xlink:href="#DejaVuSans-32"/>
       <use x="311.542969" xlink:href="#DejaVuSans-111"/>
       <use x="372.724609" xlink:href="#DejaVuSans-110"/>
       <use x="436.103516" xlink:href="#DejaVuSans-101"/>
      </g>
     </g>
    </g>
    <g id="xtick_2">
     <g id="line2d_3">
      <path clip-path="url(#pd8b988c8dc)" d="M 233.55 504 
L 233.55 69.12 
" style="fill:none;stroke:#0000ff;stroke-linecap:square;stroke-opacity:0.1;stroke-width:0.7;"/>
     </g>
     <g id="line2d_4">
      <g>
       <use style="stroke:#000000;stroke-width:0.8;" x="233.55" xlink:href="#mb2e5cda7d4" y="504"/>
      </g>
     </g>
     <g id="text_2">
      <!-- Week two -->
      <defs>
       <path d="M 18.3125 70.21875 
L 18.3125 54.6875 
L 36.8125 54.6875 
L 36.8125 47.703125 
L 18.3125 47.703125 
L 18.3125 18.015625 
Q 18.3125 11.328125 20.140625 9.421875 
Q 21.96875 7.515625 27.59375 7.515625 
L 36.8125 7.515625 
L 36.8125 0 
L 27.59375 0 
Q 17.1875 0 13.234375 3.875 
Q 9.28125 7.765625 9.28125 18.015625 
L 9.28125 47.703125 
L 2.6875 47.703125 
L 2.6875 54.6875 
L 9.28125 54.6875 
L 9.28125 70.21875 
z
" id="DejaVuSans-116"/>
       <path d="M 4.203125 54.6875 
L 13.1875 54.6875 
L 24.421875 12.015625 
L 35.59375 54.6875 
L 46.1875 54.6875 
L 57.421875 12.015625 
L 68.609375 54.6875 
L 77.59375 54.6875 
L 63.28125 0 
L 52.6875 0 
L 40.921875 44.828125 
L 29.109375 0 
L 18.5 0 
z
" id="DejaVuSans-119"/>
      </defs>
      <g transform="translate(208.864063 518.598438)scale(0.1 -0.1)">
       <use xlink:href="#DejaVuSans-87"/>
       <use x="98.798828" xlink:href="#DejaVuSans-101"/>
       <use x="160.322266" xlink:href="#DejaVuSans-101"/>
       <use x="221.845703" xlink:href="#DejaVuSans-107"/>
       <use x="279.755859" xlink:href="#DejaVuSans-32"/>
       <use x="311.542969" xlink:href="#DejaVuSans-116"/>
       <use x="350.751953" xlink:href="#DejaVuSans-119"/>
       <use x="432.539062" xlink:href="#DejaVuSans-111"/>
      </g>
     </g>
    </g>
    <g id="xtick_3">
     <g id="line2d_5">
      <path clip-path="url(#pd8b988c8dc)" d="M 317.25 504 
L 317.25 69.12 
" style="fill:none;stroke:#0000ff;stroke-linecap:square;stroke-opacity:0.1;stroke-width:0.7;"/>
     </g>
     <g id="line2d_6">
      <g>
       <use style="stroke:#000000;stroke-width:0.8;" x="317.25" xlink:href="#mb2e5cda7d4" y="504"/>
      </g>
     </g>
     <g id="text_3">
      <!-- Week three -->
      <defs>
       <path d="M 54.890625 33.015625 
L 54.890625 0 
L 45.90625 0 
L 45.90625 32.71875 
Q 45.90625 40.484375 42.875 44.328125 
Q 39.84375 48.1875 33.796875 48.1875 
Q 26.515625 48.1875 22.3125 43.546875 
Q 18.109375 38.921875 18.109375 30.90625 
L 18.109375 0 
L 9.078125 0 
L 9.078125 75.984375 
L 18.109375 75.984375 
L 18.109375 46.1875 
Q 21.34375 51.125 25.703125 53.5625 
Q 30.078125 56 35.796875 56 
Q 45.21875 56 50.046875 50.171875 
Q 54.890625 44.34375 54.890625 33.015625 
z
" id="DejaVuSans-104"/>
       <path d="M 41.109375 46.296875 
Q 39.59375 47.171875 37.8125 47.578125 
Q 36.03125 48 33.890625 48 
Q 26.265625 48 22.1875 43.046875 
Q 18.109375 38.09375 18.109375 28.8125 
L 18.109375 0 
L 9.078125 0 
L 9.078125 54.6875 
L 18.109375 54.6875 
L 18.109375 46.1875 
Q 20.953125 51.171875 25.484375 53.578125 
Q 30.03125 56 36.53125 56 
Q 37.453125 56 38.578125 55.875 
Q 39.703125 55.765625 41.0625 55.515625 
z
" id="DejaVuSans-114"/>
      </defs>
      <g transform="translate(288.336719 518.598438)scale(0.1 -0.1)">
       <use xlink:href="#DejaVuSans-87"/>
       <use x="98.798828" xlink:href="#DejaVuSans-101"/>
       <use x="160.322266" xlink:href="#DejaVuSans-101"/>
       <use x="221.845703" xlink:href="#DejaVuSans-107"/>
       <use x="279.755859" xlink:href="#DejaVuSans-32"/>
       <use x="311.542969" xlink:href="#DejaVuSans-116"/>
       <use x="350.751953" xlink:href="#DejaVuSans-104"/>
       <use x="414.130859" xlink:href="#DejaVuSans-114"/>
       <use x="455.212891" xlink:href="#DejaVuSans-101"/>
       <use x="516.736328" xlink:href="#DejaVuSans-101"/>
      </g>
     </g>
    </g>
    <g id="xtick_4">
     <g id="line2d_7">
      <path clip-path="url(#pd8b988c8dc)" d="M 400.95 504 
L 400.95 69.12 
" style="fill:none;stroke:#0000ff;stroke-linecap:square;stroke-opacity:0.1;stroke-width:0.7;"/>
     </g>
     <g id="line2d_8">
      <g>
       <use style="stroke:#000000;stroke-width:0.8;" x="400.95" xlink:href="#mb2e5cda7d4" y="504"/>
      </g>
     </g>
     <g id="text_4">
      <!-- Week four -->
      <defs>
       <path d="M 37.109375 75.984375 
L 37.109375 68.5 
L 28.515625 68.5 
Q 23.6875 68.5 21.796875 66.546875 
Q 19.921875 64.59375 19.921875 59.515625 
L 19.921875 54.6875 
L 34.71875 54.6875 
L 34.71875 47.703125 
L 19.921875 47.703125 
L 19.921875 0 
L 10.890625 0 
L 10.890625 47.703125 
L 2.296875 47.703125 
L 2.296875 54.6875 
L 10.890625 54.6875 
L 10.890625 58.5 
Q 10.890625 67.625 15.140625 71.796875 
Q 19.390625 75.984375 28.609375 75.984375 
z
" id="DejaVuSans-102"/>
       <path d="M 8.5 21.578125 
L 8.5 54.6875 
L 17.484375 54.6875 
L 17.484375 21.921875 
Q 17.484375 14.15625 20.5 10.265625 
Q 23.53125 6.390625 29.59375 6.390625 
Q 36.859375 6.390625 41.078125 11.03125 
Q 45.3125 15.671875 45.3125 23.6875 
L 45.3125 54.6875 
L 54.296875 54.6875 
L 54.296875 0 
L 45.3125 0 
L 45.3125 8.40625 
Q 42.046875 3.421875 37.71875 1 
Q 33.40625 -1.421875 27.6875 -1.421875 
Q 18.265625 -1.421875 13.375 4.4375 
Q 8.5 10.296875 8.5 21.578125 
z
M 31.109375 56 
z
" id="DejaVuSans-117"/>
      </defs>
      <g transform="translate(375.328906 518.598438)scale(0.1 -0.1)">
       <use xlink:href="#DejaVuSans-87"/>
       <use x="98.798828" xlink:href="#DejaVuSans-101"/>
       <use x="160.322266" xlink:href="#DejaVuSans-101"/>
       <use x="221.845703" xlink:href="#DejaVuSans-107"/>
       <use x="279.755859" xlink:href="#DejaVuSans-32"/>
       <use x="311.542969" xlink:href="#DejaVuSans-102"/>
       <use x="346.748047" xlink:href="#DejaVuSans-111"/>
       <use x="407.929688" xlink:href="#DejaVuSans-117"/>
       <use x="471.308594" xlink:href="#DejaVuSans-114"/>
      </g>
     </g>
    </g>
    <g id="xtick_5">
     <g id="line2d_9">
      <path clip-path="url(#pd8b988c8dc)" d="M 484.65 504 
L 484.65 69.12 
" style="fill:none;stroke:#0000ff;stroke-linecap:square;stroke-opacity:0.1;stroke-width:0.7;"/>
     </g>
     <g id="line2d_10">
      <g>
       <use style="stroke:#000000;stroke-width:0.8;" x="484.65" xlink:href="#mb2e5cda7d4" y="504"/>
      </g>
     </g>
     <g id="text_5">
      <!-- Week five -->
      <defs>
       <path d="M 9.421875 54.6875 
L 18.40625 54.6875 
L 18.40625 0 
L 9.421875 0 
z
M 9.421875 75.984375 
L 18.40625 75.984375 
L 18.40625 64.59375 
L 9.421875 64.59375 
z
" id="DejaVuSans-105"/>
       <path d="M 2.984375 54.6875 
L 12.5 54.6875 
L 29.59375 8.796875 
L 46.6875 54.6875 
L 56.203125 54.6875 
L 35.6875 0 
L 23.484375 0 
z
" id="DejaVuSans-118"/>
      </defs>
      <g transform="translate(459.8875 518.598438)scale(0.1 -0.1)">
       <use xlink:href="#DejaVuSans-87"/>
       <use x="98.798828" xlink:href="#DejaVuSans-101"/>
       <use x="160.322266" xlink:href="#DejaVuSans-101"/>
       <use x="221.845703" xlink:href="#DejaVuSans-107"/>
       <use x="279.755859" xlink:href="#DejaVuSans-32"/>
       <use x="311.542969" xlink:href="#DejaVuSans-102"/>
       <use x="346.748047" xlink:href="#DejaVuSans-105"/>
       <use x="374.53125" xlink:href="#DejaVuSans-118"/>
       <use x="433.710938" xlink:href="#DejaVuSans-101"/>
      </g>
     </g>
    </g>
    <g id="xtick_6">
     <g id="line2d_11">
      <path clip-path="url(#pd8b988c8dc)" d="M 568.35 504 
L 568.35 69.12 
" style="fill:none;stroke:#0000ff;stroke-linecap:square;stroke-opacity:0.1;stroke-width:0.7;"/>
     </g>
     <g id="line2d_12">
      <g>
       <use style="stroke:#000000;stroke-width:0.8;" x="568.35" xlink:href="#mb2e5cda7d4" y="504"/>
      </g>
     </g>
     <g id="text_6">
      <!-- Week six -->
      <defs>
       <path d="M 44.28125 53.078125 
L 44.28125 44.578125 
Q 40.484375 46.53125 36.375 47.5 
Q 32.28125 48.484375 27.875 48.484375 
Q 21.1875 48.484375 17.84375 46.4375 
Q 14.5 44.390625 14.5 40.28125 
Q 14.5 37.15625 16.890625 35.375 
Q 19.28125 33.59375 26.515625 31.984375 
L 29.59375 31.296875 
Q 39.15625 29.25 43.1875 25.515625 
Q 47.21875 21.78125 47.21875 15.09375 
Q 47.21875 7.46875 41.1875 3.015625 
Q 35.15625 -1.421875 24.609375 -1.421875 
Q 20.21875 -1.421875 15.453125 -0.5625 
Q 10.6875 0.296875 5.421875 2 
L 5.421875 11.28125 
Q 10.40625 8.6875 15.234375 7.390625 
Q 20.0625 6.109375 24.8125 6.109375 
Q 31.15625 6.109375 34.5625 8.28125 
Q 37.984375 10.453125 37.984375 14.40625 
Q 37.984375 18.0625 35.515625 20.015625 
Q 33.0625 21.96875 24.703125 23.78125 
L 21.578125 24.515625 
Q 13.234375 26.265625 9.515625 29.90625 
Q 5.8125 33.546875 5.8125 39.890625 
Q 5.8125 47.609375 11.28125 51.796875 
Q 16.75 56 26.8125 56 
Q 31.78125 56 36.171875 55.265625 
Q 40.578125 54.546875 44.28125 53.078125 
z
" id="DejaVuSans-115"/>
       <path d="M 54.890625 54.6875 
L 35.109375 28.078125 
L 55.90625 0 
L 45.3125 0 
L 29.390625 21.484375 
L 13.484375 0 
L 2.875 0 
L 24.125 28.609375 
L 4.6875 54.6875 
L 15.28125 54.6875 
L 29.78125 35.203125 
L 44.28125 54.6875 
z
" id="DejaVuSans-120"/>
      </defs>
      <g transform="translate(545.819531 518.598438)scale(0.1 -0.1)">
       <use xlink:href="#DejaVuSans-87"/>
       <use x="98.798828" xlink:href="#DejaVuSans-101"/>
       <use x="160.322266" xlink:href="#DejaVuSans-101"/>
       <use x="221.845703" xlink:href="#DejaVuSans-107"/>
       <use x="279.755859" xlink:href="#DejaVuSans-32"/>
       <use x="311.542969" xlink:href="#DejaVuSans-115"/>
       <use x="363.642578" xlink:href="#DejaVuSans-105"/>
       <use x="391.425781" xlink:href="#DejaVuSans-120"/>
      </g>
     </g>
    </g>
    <g id="xtick_7">
     <g id="line2d_13">
      <path clip-path="url(#pd8b988c8dc)" d="M 652.05 504 
L 652.05 69.12 
" style="fill:none;stroke:#0000ff;stroke-linecap:square;stroke-opacity:0.1;stroke-width:0.7;"/>
     </g>
     <g id="line2d_14">
      <g>
       <use style="stroke:#000000;stroke-width:0.8;" x="652.05" xlink:href="#mb2e5cda7d4" y="504"/>
      </g>
     </g>
     <g id="text_7">
      <!-- Week seven -->
      <g transform="translate(621.586719 518.598438)scale(0.1 -0.1)">
       <use xlink:href="#DejaVuSans-87"/>
       <use x="98.798828" xlink:href="#DejaVuSans-101"/>
       <use x="160.322266" xlink:href="#DejaVuSans-101"/>
       <use x="221.845703" xlink:href="#DejaVuSans-107"/>
       <use x="279.755859" xlink:href="#DejaVuSans-32"/>
       <use x="311.542969" xlink:href="#DejaVuSans-115"/>
       <use x="363.642578" xlink:href="#DejaVuSans-101"/>
       <use x="425.166016" xlink:href="#DejaVuSans-118"/>
       <use x="484.345703" xlink:href="#DejaVuSans-101"/>
       <use x="545.869141" xlink:href="#DejaVuSans-110"/>
      </g>
     </g>
    </g>
    <g id="xtick_8">
     <g id="line2d_15">
      <path clip-path="url(#pd8b988c8dc)" d="M 735.75 504 
L 735.75 69.12 
" style="fill:none;stroke:#0000ff;stroke-linecap:square;stroke-opacity:0.1;stroke-width:0.7;"/>
     </g>
     <g id="line2d_16">
      <g>
       <use style="stroke:#000000;stroke-width:0.8;" x="735.75" xlink:href="#mb2e5cda7d4" y="504"/>
      </g>
     </g>
     <g id="text_8">
      <!-- Week eight -->
      <defs>
       <path d="M 45.40625 27.984375 
Q 45.40625 37.75 41.375 43.109375 
Q 37.359375 48.484375 30.078125 48.484375 
Q 22.859375 48.484375 18.828125 43.109375 
Q 14.796875 37.75 14.796875 27.984375 
Q 14.796875 18.265625 18.828125 12.890625 
Q 22.859375 7.515625 30.078125 7.515625 
Q 37.359375 7.515625 41.375 12.890625 
Q 45.40625 18.265625 45.40625 27.984375 
z
M 54.390625 6.78125 
Q 54.390625 -7.171875 48.1875 -13.984375 
Q 42 -20.796875 29.203125 -20.796875 
Q 24.46875 -20.796875 20.265625 -20.09375 
Q 16.0625 -19.390625 12.109375 -17.921875 
L 12.109375 -9.1875 
Q 16.0625 -11.328125 19.921875 -12.34375 
Q 23.78125 -13.375 27.78125 -13.375 
Q 36.625 -13.375 41.015625 -8.765625 
Q 45.40625 -4.15625 45.40625 5.171875 
L 45.40625 9.625 
Q 42.625 4.78125 38.28125 2.390625 
Q 33.9375 0 27.875 0 
Q 17.828125 0 11.671875 7.65625 
Q 5.515625 15.328125 5.515625 27.984375 
Q 5.515625 40.671875 11.671875 48.328125 
Q 17.828125 56 27.875 56 
Q 33.9375 56 38.28125 53.609375 
Q 42.625 51.21875 45.40625 46.390625 
L 45.40625 54.6875 
L 54.390625 54.6875 
z
" id="DejaVuSans-103"/>
      </defs>
      <g transform="translate(707.403906 518.598438)scale(0.1 -0.1)">
       <use xlink:href="#DejaVuSans-87"/>
       <use x="98.798828" xlink:href="#DejaVuSans-101"/>
       <use x="160.322266" xlink:href="#DejaVuSans-101"/>
       <use x="221.845703" xlink:href="#DejaVuSans-107"/>
       <use x="279.755859" xlink:href="#DejaVuSans-32"/>
       <use x="311.542969" xlink:href="#DejaVuSans-101"/>
       <use x="373.066406" xlink:href="#DejaVuSans-105"/>
       <use x="400.849609" xlink:href="#DejaVuSans-103"/>
       <use x="464.326172" xlink:href="#DejaVuSans-104"/>
       <use x="527.705078" xlink:href="#DejaVuSans-116"/>
      </g>
     </g>
    </g>
    <g id="text_9">
     <!-- Sample weeks 2016 and 2017 -->
     <defs>
      <path d="M 53.515625 70.515625 
L 53.515625 60.890625 
Q 47.90625 63.578125 42.921875 64.890625 
Q 37.9375 66.21875 33.296875 66.21875 
Q 25.25 66.21875 20.875 63.09375 
Q 16.5 59.96875 16.5 54.203125 
Q 16.5 49.359375 19.40625 46.890625 
Q 22.3125 44.4375 30.421875 42.921875 
L 36.375 41.703125 
Q 47.40625 39.59375 52.65625 34.296875 
Q 57.90625 29 57.90625 20.125 
Q 57.90625 9.515625 50.796875 4.046875 
Q 43.703125 -1.421875 29.984375 -1.421875 
Q 24.8125 -1.421875 18.96875 -0.25 
Q 13.140625 0.921875 6.890625 3.21875 
L 6.890625 13.375 
Q 12.890625 10.015625 18.65625 8.296875 
Q 24.421875 6.59375 29.984375 6.59375 
Q 38.421875 6.59375 43.015625 9.90625 
Q 47.609375 13.234375 47.609375 19.390625 
Q 47.609375 24.75 44.3125 27.78125 
Q 41.015625 30.8125 33.5 32.328125 
L 27.484375 33.5 
Q 16.453125 35.6875 11.515625 40.375 
Q 6.59375 45.0625 6.59375 53.421875 
Q 6.59375 63.09375 13.40625 68.65625 
Q 20.21875 74.21875 32.171875 74.21875 
Q 37.3125 74.21875 42.625 73.28125 
Q 47.953125 72.359375 53.515625 70.515625 
z
" id="DejaVuSans-83"/>
      <path d="M 34.28125 27.484375 
Q 23.390625 27.484375 19.1875 25 
Q 14.984375 22.515625 14.984375 16.5 
Q 14.984375 11.71875 18.140625 8.90625 
Q 21.296875 6.109375 26.703125 6.109375 
Q 34.1875 6.109375 38.703125 11.40625 
Q 43.21875 16.703125 43.21875 25.484375 
L 43.21875 27.484375 
z
M 52.203125 31.203125 
L 52.203125 0 
L 43.21875 0 
L 43.21875 8.296875 
Q 40.140625 3.328125 35.546875 0.953125 
Q 30.953125 -1.421875 24.3125 -1.421875 
Q 15.921875 -1.421875 10.953125 3.296875 
Q 6 8.015625 6 15.921875 
Q 6 25.140625 12.171875 29.828125 
Q 18.359375 34.515625 30.609375 34.515625 
L 43.21875 34.515625 
L 43.21875 35.40625 
Q 43.21875 41.609375 39.140625 45 
Q 35.0625 48.390625 27.6875 48.390625 
Q 23 48.390625 18.546875 47.265625 
Q 14.109375 46.140625 10.015625 43.890625 
L 10.015625 52.203125 
Q 14.9375 54.109375 19.578125 55.046875 
Q 24.21875 56 28.609375 56 
Q 40.484375 56 46.34375 49.84375 
Q 52.203125 43.703125 52.203125 31.203125 
z
" id="DejaVuSans-97"/>
      <path d="M 52 44.1875 
Q 55.375 50.25 60.0625 53.125 
Q 64.75 56 71.09375 56 
Q 79.640625 56 84.28125 50.015625 
Q 88.921875 44.046875 88.921875 33.015625 
L 88.921875 0 
L 79.890625 0 
L 79.890625 32.71875 
Q 79.890625 40.578125 77.09375 44.375 
Q 74.3125 48.1875 68.609375 48.1875 
Q 61.625 48.1875 57.5625 43.546875 
Q 53.515625 38.921875 53.515625 30.90625 
L 53.515625 0 
L 44.484375 0 
L 44.484375 32.71875 
Q 44.484375 40.625 41.703125 44.40625 
Q 38.921875 48.1875 33.109375 48.1875 
Q 26.21875 48.1875 22.15625 43.53125 
Q 18.109375 38.875 18.109375 30.90625 
L 18.109375 0 
L 9.078125 0 
L 9.078125 54.6875 
L 18.109375 54.6875 
L 18.109375 46.1875 
Q 21.1875 51.21875 25.484375 53.609375 
Q 29.78125 56 35.6875 56 
Q 41.65625 56 45.828125 52.96875 
Q 50 49.953125 52 44.1875 
z
" id="DejaVuSans-109"/>
      <path d="M 18.109375 8.203125 
L 18.109375 -20.796875 
L 9.078125 -20.796875 
L 9.078125 54.6875 
L 18.109375 54.6875 
L 18.109375 46.390625 
Q 20.953125 51.265625 25.265625 53.625 
Q 29.59375 56 35.59375 56 
Q 45.5625 56 51.78125 48.09375 
Q 58.015625 40.1875 58.015625 27.296875 
Q 58.015625 14.40625 51.78125 6.484375 
Q 45.5625 -1.421875 35.59375 -1.421875 
Q 29.59375 -1.421875 25.265625 0.953125 
Q 20.953125 3.328125 18.109375 8.203125 
z
M 48.6875 27.296875 
Q 48.6875 37.203125 44.609375 42.84375 
Q 40.53125 48.484375 33.40625 48.484375 
Q 26.265625 48.484375 22.1875 42.84375 
Q 18.109375 37.203125 18.109375 27.296875 
Q 18.109375 17.390625 22.1875 11.75 
Q 26.265625 6.109375 33.40625 6.109375 
Q 40.53125 6.109375 44.609375 11.75 
Q 48.6875 17.390625 48.6875 27.296875 
z
" id="DejaVuSans-112"/>
      <path d="M 9.421875 75.984375 
L 18.40625 75.984375 
L 18.40625 0 
L 9.421875 0 
z
" id="DejaVuSans-108"/>
      <path d="M 19.1875 8.296875 
L 53.609375 8.296875 
L 53.609375 0 
L 7.328125 0 
L 7.328125 8.296875 
Q 12.9375 14.109375 22.625 23.890625 
Q 32.328125 33.6875 34.8125 36.53125 
Q 39.546875 41.84375 41.421875 45.53125 
Q 43.3125 49.21875 43.3125 52.78125 
Q 43.3125 58.59375 39.234375 62.25 
Q 35.15625 65.921875 28.609375 65.921875 
Q 23.96875 65.921875 18.8125 64.3125 
Q 13.671875 62.703125 7.8125 59.421875 
L 7.8125 69.390625 
Q 13.765625 71.78125 18.9375 73 
Q 24.125 74.21875 28.421875 74.21875 
Q 39.75 74.21875 46.484375 68.546875 
Q 53.21875 62.890625 53.21875 53.421875 
Q 53.21875 48.921875 51.53125 44.890625 
Q 49.859375 40.875 45.40625 35.40625 
Q 44.1875 33.984375 37.640625 27.21875 
Q 31.109375 20.453125 19.1875 8.296875 
z
" id="DejaVuSans-50"/>
      <path d="M 31.78125 66.40625 
Q 24.171875 66.40625 20.328125 58.90625 
Q 16.5 51.421875 16.5 36.375 
Q 16.5 21.390625 20.328125 13.890625 
Q 24.171875 6.390625 31.78125 6.390625 
Q 39.453125 6.390625 43.28125 13.890625 
Q 47.125 21.390625 47.125 36.375 
Q 47.125 51.421875 43.28125 58.90625 
Q 39.453125 66.40625 31.78125 66.40625 
z
M 31.78125 74.21875 
Q 44.046875 74.21875 50.515625 64.515625 
Q 56.984375 54.828125 56.984375 36.375 
Q 56.984375 17.96875 50.515625 8.265625 
Q 44.046875 -1.421875 31.78125 -1.421875 
Q 19.53125 -1.421875 13.0625 8.265625 
Q 6.59375 17.96875 6.59375 36.375 
Q 6.59375 54.828125 13.0625 64.515625 
Q 19.53125 74.21875 31.78125 74.21875 
z
" id="DejaVuSans-48"/>
      <path d="M 12.40625 8.296875 
L 28.515625 8.296875 
L 28.515625 63.921875 
L 10.984375 60.40625 
L 10.984375 69.390625 
L 28.421875 72.90625 
L 38.28125 72.90625 
L 38.28125 8.296875 
L 54.390625 8.296875 
L 54.390625 0 
L 12.40625 0 
z
" id="DejaVuSans-49"/>
      <path d="M 33.015625 40.375 
Q 26.375 40.375 22.484375 35.828125 
Q 18.609375 31.296875 18.609375 23.390625 
Q 18.609375 15.53125 22.484375 10.953125 
Q 26.375 6.390625 33.015625 6.390625 
Q 39.65625 6.390625 43.53125 10.953125 
Q 47.40625 15.53125 47.40625 23.390625 
Q 47.40625 31.296875 43.53125 35.828125 
Q 39.65625 40.375 33.015625 40.375 
z
M 52.59375 71.296875 
L 52.59375 62.3125 
Q 48.875 64.0625 45.09375 64.984375 
Q 41.3125 65.921875 37.59375 65.921875 
Q 27.828125 65.921875 22.671875 59.328125 
Q 17.53125 52.734375 16.796875 39.40625 
Q 19.671875 43.65625 24.015625 45.921875 
Q 28.375 48.1875 33.59375 48.1875 
Q 44.578125 48.1875 50.953125 41.515625 
Q 57.328125 34.859375 57.328125 23.390625 
Q 57.328125 12.15625 50.6875 5.359375 
Q 44.046875 -1.421875 33.015625 -1.421875 
Q 20.359375 -1.421875 13.671875 8.265625 
Q 6.984375 17.96875 6.984375 36.375 
Q 6.984375 53.65625 15.1875 63.9375 
Q 23.390625 74.21875 37.203125 74.21875 
Q 40.921875 74.21875 44.703125 73.484375 
Q 48.484375 72.75 52.59375 71.296875 
z
" id="DejaVuSans-54"/>
      <path d="M 45.40625 46.390625 
L 45.40625 75.984375 
L 54.390625 75.984375 
L 54.390625 0 
L 45.40625 0 
L 45.40625 8.203125 
Q 42.578125 3.328125 38.25 0.953125 
Q 33.9375 -1.421875 27.875 -1.421875 
Q 17.96875 -1.421875 11.734375 6.484375 
Q 5.515625 14.40625 5.515625 27.296875 
Q 5.515625 40.1875 11.734375 48.09375 
Q 17.96875 56 27.875 56 
Q 33.9375 56 38.25 53.625 
Q 42.578125 51.265625 45.40625 46.390625 
z
M 14.796875 27.296875 
Q 14.796875 17.390625 18.875 11.75 
Q 22.953125 6.109375 30.078125 6.109375 
Q 37.203125 6.109375 41.296875 11.75 
Q 45.40625 17.390625 45.40625 27.296875 
Q 45.40625 37.203125 41.296875 42.84375 
Q 37.203125 48.484375 30.078125 48.484375 
Q 22.953125 48.484375 18.875 42.84375 
Q 14.796875 37.203125 14.796875 27.296875 
z
" id="DejaVuSans-100"/>
      <path d="M 8.203125 72.90625 
L 55.078125 72.90625 
L 55.078125 68.703125 
L 28.609375 0 
L 18.3125 0 
L 43.21875 64.59375 
L 8.203125 64.59375 
z
" id="DejaVuSans-55"/>
     </defs>
     <g transform="translate(321.67375 552.835625)scale(0.16 -0.16)">
      <use xlink:href="#DejaVuSans-83"/>
      <use x="63.476562" xlink:href="#DejaVuSans-97"/>
      <use x="124.755859" xlink:href="#DejaVuSans-109"/>
      <use x="222.167969" xlink:href="#DejaVuSans-112"/>
      <use x="285.644531" xlink:href="#DejaVuSans-108"/>
      <use x="313.427734" xlink:href="#DejaVuSans-101"/>
      <use x="374.951172" xlink:href="#DejaVuSans-32"/>
      <use x="406.738281" xlink:href="#DejaVuSans-119"/>
      <use x="488.525391" xlink:href="#DejaVuSans-101"/>
      <use x="550.048828" xlink:href="#DejaVuSans-101"/>
      <use x="611.572266" xlink:href="#DejaVuSans-107"/>
      <use x="669.482422" xlink:href="#DejaVuSans-115"/>
      <use x="721.582031" xlink:href="#DejaVuSans-32"/>
      <use x="753.369141" xlink:href="#DejaVuSans-50"/>
      <use x="816.992188" xlink:href="#DejaVuSans-48"/>
      <use x="880.615234" xlink:href="#DejaVuSans-49"/>
      <use x="944.238281" xlink:href="#DejaVuSans-54"/>
      <use x="1007.861328" xlink:href="#DejaVuSans-32"/>
      <use x="1039.648438" xlink:href="#DejaVuSans-97"/>
      <use x="1100.927734" xlink:href="#DejaVuSans-110"/>
      <use x="1164.306641" xlink:href="#DejaVuSans-100"/>
      <use x="1227.783203" xlink:href="#DejaVuSans-32"/>
      <use x="1259.570312" xlink:href="#DejaVuSans-50"/>
      <use x="1323.193359" xlink:href="#DejaVuSans-48"/>
      <use x="1386.816406" xlink:href="#DejaVuSans-49"/>
      <use x="1450.439453" xlink:href="#DejaVuSans-55"/>
     </g>
    </g>
   </g>
   <g id="matplotlib.axis_2">
    <g id="ytick_1">
     <g id="line2d_17">
      <defs>
       <path d="M 0 0 
L -3.5 0 
" id="mf772471a0d" style="stroke:#000000;stroke-width:0.8;"/>
      </defs>
      <g>
       <use style="stroke:#000000;stroke-width:0.8;" x="108" xlink:href="#mf772471a0d" y="477.27408"/>
      </g>
     </g>
     <g id="text_10">
      <!-- 0 -->
      <g transform="translate(94.6375 481.073299)scale(0.1 -0.1)">
       <use xlink:href="#DejaVuSans-48"/>
      </g>
     </g>
    </g>
    <g id="ytick_2">
     <g id="line2d_18">
      <g>
       <use style="stroke:#000000;stroke-width:0.8;" x="108" xlink:href="#mf772471a0d" y="422.385986"/>
      </g>
     </g>
     <g id="text_11">
      <!-- 200 -->
      <g transform="translate(81.9125 426.185205)scale(0.1 -0.1)">
       <use xlink:href="#DejaVuSans-50"/>
       <use x="63.623047" xlink:href="#DejaVuSans-48"/>
       <use x="127.246094" xlink:href="#DejaVuSans-48"/>
      </g>
     </g>
    </g>
    <g id="ytick_3">
     <g id="line2d_19">
      <g>
       <use style="stroke:#000000;stroke-width:0.8;" x="108" xlink:href="#mf772471a0d" y="367.497892"/>
      </g>
     </g>
     <g id="text_12">
      <!-- 400 -->
      <defs>
       <path d="M 37.796875 64.3125 
L 12.890625 25.390625 
L 37.796875 25.390625 
z
M 35.203125 72.90625 
L 47.609375 72.90625 
L 47.609375 25.390625 
L 58.015625 25.390625 
L 58.015625 17.1875 
L 47.609375 17.1875 
L 47.609375 0 
L 37.796875 0 
L 37.796875 17.1875 
L 4.890625 17.1875 
L 4.890625 26.703125 
z
" id="DejaVuSans-52"/>
      </defs>
      <g transform="translate(81.9125 371.297111)scale(0.1 -0.1)">
       <use xlink:href="#DejaVuSans-52"/>
       <use x="63.623047" xlink:href="#DejaVuSans-48"/>
       <use x="127.246094" xlink:href="#DejaVuSans-48"/>
      </g>
     </g>
    </g>
    <g id="ytick_4">
     <g id="line2d_20">
      <g>
       <use style="stroke:#000000;stroke-width:0.8;" x="108" xlink:href="#mf772471a0d" y="312.609799"/>
      </g>
     </g>
     <g id="text_13">
      <!-- 600 -->
      <g transform="translate(81.9125 316.409017)scale(0.1 -0.1)">
       <use xlink:href="#DejaVuSans-54"/>
       <use x="63.623047" xlink:href="#DejaVuSans-48"/>
       <use x="127.246094" xlink:href="#DejaVuSans-48"/>
      </g>
     </g>
    </g>
    <g id="ytick_5">
     <g id="line2d_21">
      <g>
       <use style="stroke:#000000;stroke-width:0.8;" x="108" xlink:href="#mf772471a0d" y="257.721705"/>
      </g>
     </g>
     <g id="text_14">
      <!-- 800 -->
      <defs>
       <path d="M 31.78125 34.625 
Q 24.75 34.625 20.71875 30.859375 
Q 16.703125 27.09375 16.703125 20.515625 
Q 16.703125 13.921875 20.71875 10.15625 
Q 24.75 6.390625 31.78125 6.390625 
Q 38.8125 6.390625 42.859375 10.171875 
Q 46.921875 13.96875 46.921875 20.515625 
Q 46.921875 27.09375 42.890625 30.859375 
Q 38.875 34.625 31.78125 34.625 
z
M 21.921875 38.8125 
Q 15.578125 40.375 12.03125 44.71875 
Q 8.5 49.078125 8.5 55.328125 
Q 8.5 64.0625 14.71875 69.140625 
Q 20.953125 74.21875 31.78125 74.21875 
Q 42.671875 74.21875 48.875 69.140625 
Q 55.078125 64.0625 55.078125 55.328125 
Q 55.078125 49.078125 51.53125 44.71875 
Q 48 40.375 41.703125 38.8125 
Q 48.828125 37.15625 52.796875 32.3125 
Q 56.78125 27.484375 56.78125 20.515625 
Q 56.78125 9.90625 50.3125 4.234375 
Q 43.84375 -1.421875 31.78125 -1.421875 
Q 19.734375 -1.421875 13.25 4.234375 
Q 6.78125 9.90625 6.78125 20.515625 
Q 6.78125 27.484375 10.78125 32.3125 
Q 14.796875 37.15625 21.921875 38.8125 
z
M 18.3125 54.390625 
Q 18.3125 48.734375 21.84375 45.5625 
Q 25.390625 42.390625 31.78125 42.390625 
Q 38.140625 42.390625 41.71875 45.5625 
Q 45.3125 48.734375 45.3125 54.390625 
Q 45.3125 60.0625 41.71875 63.234375 
Q 38.140625 66.40625 31.78125 66.40625 
Q 25.390625 66.40625 21.84375 63.234375 
Q 18.3125 60.0625 18.3125 54.390625 
z
" id="DejaVuSans-56"/>
      </defs>
      <g transform="translate(81.9125 261.520923)scale(0.1 -0.1)">
       <use xlink:href="#DejaVuSans-56"/>
       <use x="63.623047" xlink:href="#DejaVuSans-48"/>
       <use x="127.246094" xlink:href="#DejaVuSans-48"/>
      </g>
     </g>
    </g>
    <g id="ytick_6">
     <g id="line2d_22">
      <g>
       <use style="stroke:#000000;stroke-width:0.8;" x="108" xlink:href="#mf772471a0d" y="202.833611"/>
      </g>
     </g>
     <g id="text_15">
      <!-- 1000 -->
      <g transform="translate(75.55 206.63283)scale(0.1 -0.1)">
       <use xlink:href="#DejaVuSans-49"/>
       <use x="63.623047" xlink:href="#DejaVuSans-48"/>
       <use x="127.246094" xlink:href="#DejaVuSans-48"/>
       <use x="190.869141" xlink:href="#DejaVuSans-48"/>
      </g>
     </g>
    </g>
    <g id="ytick_7">
     <g id="line2d_23">
      <g>
       <use style="stroke:#000000;stroke-width:0.8;" x="108" xlink:href="#mf772471a0d" y="147.945517"/>
      </g>
     </g>
     <g id="text_16">
      <!-- 1200 -->
      <g transform="translate(75.55 151.744736)scale(0.1 -0.1)">
       <use xlink:href="#DejaVuSans-49"/>
       <use x="63.623047" xlink:href="#DejaVuSans-50"/>
       <use x="127.246094" xlink:href="#DejaVuSans-48"/>
       <use x="190.869141" xlink:href="#DejaVuSans-48"/>
      </g>
     </g>
    </g>
    <g id="ytick_8">
     <g id="line2d_24">
      <g>
       <use style="stroke:#000000;stroke-width:0.8;" x="108" xlink:href="#mf772471a0d" y="93.057423"/>
      </g>
     </g>
     <g id="text_17">
      <!-- 1400 -->
      <g transform="translate(75.55 96.856642)scale(0.1 -0.1)">
       <use xlink:href="#DejaVuSans-49"/>
       <use x="63.623047" xlink:href="#DejaVuSans-52"/>
       <use x="127.246094" xlink:href="#DejaVuSans-48"/>
       <use x="190.869141" xlink:href="#DejaVuSans-48"/>
      </g>
     </g>
    </g>
    <g id="text_18">
     <!-- Colony forming units per 100mL -->
     <defs>
      <path d="M 64.40625 67.28125 
L 64.40625 56.890625 
Q 59.421875 61.53125 53.78125 63.8125 
Q 48.140625 66.109375 41.796875 66.109375 
Q 29.296875 66.109375 22.65625 58.46875 
Q 16.015625 50.828125 16.015625 36.375 
Q 16.015625 21.96875 22.65625 14.328125 
Q 29.296875 6.6875 41.796875 6.6875 
Q 48.140625 6.6875 53.78125 8.984375 
Q 59.421875 11.28125 64.40625 15.921875 
L 64.40625 5.609375 
Q 59.234375 2.09375 53.4375 0.328125 
Q 47.65625 -1.421875 41.21875 -1.421875 
Q 24.65625 -1.421875 15.125 8.703125 
Q 5.609375 18.84375 5.609375 36.375 
Q 5.609375 53.953125 15.125 64.078125 
Q 24.65625 74.21875 41.21875 74.21875 
Q 47.75 74.21875 53.53125 72.484375 
Q 59.328125 70.75 64.40625 67.28125 
z
" id="DejaVuSans-67"/>
      <path d="M 32.171875 -5.078125 
Q 28.375 -14.84375 24.75 -17.8125 
Q 21.140625 -20.796875 15.09375 -20.796875 
L 7.90625 -20.796875 
L 7.90625 -13.28125 
L 13.1875 -13.28125 
Q 16.890625 -13.28125 18.9375 -11.515625 
Q 21 -9.765625 23.484375 -3.21875 
L 25.09375 0.875 
L 2.984375 54.6875 
L 12.5 54.6875 
L 29.59375 11.921875 
L 46.6875 54.6875 
L 56.203125 54.6875 
z
" id="DejaVuSans-121"/>
      <path d="M 9.8125 72.90625 
L 19.671875 72.90625 
L 19.671875 8.296875 
L 55.171875 8.296875 
L 55.171875 0 
L 9.8125 0 
z
" id="DejaVuSans-76"/>
     </defs>
     <g transform="translate(52.2225 415.7725)rotate(-90)scale(0.16 -0.16)">
      <use xlink:href="#DejaVuSans-67"/>
      <use x="69.824219" xlink:href="#DejaVuSans-111"/>
      <use x="131.005859" xlink:href="#DejaVuSans-108"/>
      <use x="158.789062" xlink:href="#DejaVuSans-111"/>
      <use x="219.970703" xlink:href="#DejaVuSans-110"/>
      <use x="283.349609" xlink:href="#DejaVuSans-121"/>
      <use x="342.529297" xlink:href="#DejaVuSans-32"/>
      <use x="374.316406" xlink:href="#DejaVuSans-102"/>
      <use x="409.521484" xlink:href="#DejaVuSans-111"/>
      <use x="470.703125" xlink:href="#DejaVuSans-114"/>
      <use x="511.800781" xlink:href="#DejaVuSans-109"/>
      <use x="609.212891" xlink:href="#DejaVuSans-105"/>
      <use x="636.996094" xlink:href="#DejaVuSans-110"/>
      <use x="700.375" xlink:href="#DejaVuSans-103"/>
      <use x="763.851562" xlink:href="#DejaVuSans-32"/>
      <use x="795.638672" xlink:href="#DejaVuSans-117"/>
      <use x="859.017578" xlink:href="#DejaVuSans-110"/>
      <use x="922.396484" xlink:href="#DejaVuSans-105"/>
      <use x="950.179688" xlink:href="#DejaVuSans-116"/>
      <use x="989.388672" xlink:href="#DejaVuSans-115"/>
      <use x="1041.488281" xlink:href="#DejaVuSans-32"/>
      <use x="1073.275391" xlink:href="#DejaVuSans-112"/>
      <use x="1136.751953" xlink:href="#DejaVuSans-101"/>
      <use x="1198.275391" xlink:href="#DejaVuSans-114"/>
      <use x="1239.388672" xlink:href="#DejaVuSans-32"/>
      <use x="1271.175781" xlink:href="#DejaVuSans-49"/>
      <use x="1334.798828" xlink:href="#DejaVuSans-48"/>
      <use x="1398.421875" xlink:href="#DejaVuSans-48"/>
      <use x="1462.044922" xlink:href="#DejaVuSans-109"/>
      <use x="1559.457031" xlink:href="#DejaVuSans-76"/>
     </g>
    </g>
   </g>
   <g id="line2d_25">
    <path clip-path="url(#pd8b988c8dc)" d="M 268.704 504 
L 268.704 69.12 
" style="fill:none;stroke:#0000ff;stroke-dasharray:9.6,2.4,1.5,2.4;stroke-dashoffset:0;stroke-opacity:0.8;stroke-width:1.5;"/>
   </g>
   <g id="line2d_26">
    <path clip-path="url(#pd8b988c8dc)" d="M 459.54 504 
L 459.54 69.12 
" style="fill:none;stroke:#0000ff;stroke-dasharray:9.6,2.4,1.5,2.4;stroke-dashoffset:0;stroke-opacity:0.8;stroke-width:1.5;"/>
   </g>
   <g id="line2d_27">
    <path clip-path="url(#pd8b988c8dc)" d="M 350.73 504 
L 350.73 69.12 
" style="fill:none;stroke:#ff0000;stroke-dasharray:9.6,2.4,1.5,2.4;stroke-dashoffset:0;stroke-opacity:0.8;stroke-width:1.5;"/>
   </g>
   <g id="line2d_28">
    <path clip-path="url(#pd8b988c8dc)" d="M 533.196 504 
L 533.196 69.12 
" style="fill:none;stroke:#ff0000;stroke-dasharray:9.6,2.4,1.5,2.4;stroke-dashoffset:0;stroke-opacity:0.8;stroke-width:1.5;"/>
   </g>
   <g id="patch_3">
    <path d="M 108 504 
L 108 69.12 
" style="fill:none;stroke:#000000;stroke-linecap:square;stroke-linejoin:miter;stroke-width:0.8;"/>
   </g>
   <g id="patch_4">
    <path d="M 777.6 504 
L 777.6 69.12 
" style="fill:none;stroke:#000000;stroke-linecap:square;stroke-linejoin:miter;stroke-width:0.8;"/>
   </g>
   <g id="patch_5">
    <path d="M 108 504 
L 777.6 504 
" style="fill:none;stroke:#000000;stroke-linecap:square;stroke-linejoin:miter;stroke-width:0.8;"/>
   </g>
   <g id="patch_6">
    <path d="M 108 69.12 
L 777.6 69.12 
" style="fill:none;stroke:#000000;stroke-linecap:square;stroke-linejoin:miter;stroke-width:0.8;"/>
   </g>
   <g id="PathCollection_6">
    <defs>
     <path d="M 0 7 
C 1.856422 7 3.637059 6.262436 4.949747 4.949747 
C 6.262436 3.637059 7 1.856422 7 0 
C 7 -1.856422 6.262436 -3.637059 4.949747 -4.949747 
C 3.637059 -6.262436 1.856422 -7 0 -7 
C -1.856422 -7 -3.637059 -6.262436 -4.949747 -4.949747 
C -6.262436 -3.637059 -7 -1.856422 -7 0 
C -7 1.856422 -6.262436 3.637059 -4.949747 4.949747 
C -3.637059 6.262436 -1.856422 7 0 7 
z
" id="C0_0_50fbb6b40f"/>
    </defs>
    <g clip-path="url(#pd8b988c8dc)">
     <use style="fill:#00008b;fill-opacity:0.8;stroke:#ffffff;stroke-opacity:0.8;" x="149.85" xlink:href="#C0_0_50fbb6b40f" y="474.987076"/>
    </g>
    <g clip-path="url(#pd8b988c8dc)">
     <use style="fill:#00008b;fill-opacity:0.8;stroke:#ffffff;stroke-opacity:0.8;" x="134.1" xlink:href="#C0_0_50fbb6b40f" y="474.987076"/>
    </g>
    <g clip-path="url(#pd8b988c8dc)">
     <use style="fill:#00008b;fill-opacity:0.8;stroke:#ffffff;stroke-opacity:0.8;" x="165.6" xlink:href="#C0_0_50fbb6b40f" y="474.987076"/>
    </g>
    <g clip-path="url(#pd8b988c8dc)">
     <use style="fill:#1e90ff;fill-opacity:0.8;stroke:#ffffff;stroke-opacity:0.8;" x="118.35" xlink:href="#C0_0_50fbb6b40f" y="474.987076"/>
    </g>
    <g clip-path="url(#pd8b988c8dc)">
     <use style="fill:#1e90ff;fill-opacity:0.8;stroke:#ffffff;stroke-opacity:0.8;" x="181.35" xlink:href="#C0_0_50fbb6b40f" y="474.987076"/>
    </g>
    <g clip-path="url(#pd8b988c8dc)">
     <use style="fill:#1e90ff;fill-opacity:0.8;stroke:#ffffff;stroke-opacity:0.8;" x="116.37" xlink:href="#C0_0_50fbb6b40f" y="474.987076"/>
    </g>
    <g clip-path="url(#pd8b988c8dc)">
     <use style="fill:#40e0d0;fill-opacity:0.8;stroke:#ffffff;stroke-opacity:0.8;" x="183.33" xlink:href="#C0_0_50fbb6b40f" y="474.987076"/>
    </g>
    <g clip-path="url(#pd8b988c8dc)">
     <use style="fill:#40e0d0;fill-opacity:0.8;stroke:#ffffff;stroke-opacity:0.8;" x="116.37" xlink:href="#C0_0_50fbb6b40f" y="474.987076"/>
    </g>
    <g clip-path="url(#pd8b988c8dc)">
     <use style="fill:#40e0d0;fill-opacity:0.8;stroke:#ffffff;stroke-opacity:0.8;" x="183.33" xlink:href="#C0_0_50fbb6b40f" y="474.987076"/>
    </g>
    <g clip-path="url(#pd8b988c8dc)">
     <use style="fill:#008000;fill-opacity:0.8;stroke:#ffffff;stroke-opacity:0.8;" x="183.33" xlink:href="#C0_0_50fbb6b40f" y="468.126064"/>
    </g>
    <g clip-path="url(#pd8b988c8dc)">
     <use style="fill:#008000;fill-opacity:0.8;stroke:#ffffff;stroke-opacity:0.8;" x="116.37" xlink:href="#C0_0_50fbb6b40f" y="468.126064"/>
    </g>
    <g clip-path="url(#pd8b988c8dc)">
     <use style="fill:#bfbf00;fill-opacity:0.8;stroke:#ffffff;stroke-opacity:0.8;" x="183.33" xlink:href="#C0_0_50fbb6b40f" y="468.126064"/>
    </g>
    <g clip-path="url(#pd8b988c8dc)">
     <use style="fill:#bfbf00;fill-opacity:0.8;stroke:#ffffff;stroke-opacity:0.8;" x="116.37" xlink:href="#C0_0_50fbb6b40f" y="468.126064"/>
    </g>
    <g clip-path="url(#pd8b988c8dc)">
     <use style="fill:#008000;fill-opacity:0.8;stroke:#ffffff;stroke-opacity:0.8;" x="149.85" xlink:href="#C0_0_50fbb6b40f" y="458.978049"/>
    </g>
    <g clip-path="url(#pd8b988c8dc)">
     <use style="fill:#bfbf00;fill-opacity:0.8;stroke:#ffffff;stroke-opacity:0.8;" x="149.85" xlink:href="#C0_0_50fbb6b40f" y="349.201861"/>
    </g>
   </g>
   <g id="PathCollection_7">
    <defs>
     <path d="M 0 7 
C 1.856422 7 3.637059 6.262436 4.949747 4.949747 
C 6.262436 3.637059 7 1.856422 7 0 
C 7 -1.856422 6.262436 -3.637059 4.949747 -4.949747 
C 3.637059 -6.262436 1.856422 -7 0 -7 
C -1.856422 -7 -3.637059 -6.262436 -4.949747 -4.949747 
C -6.262436 -3.637059 -7 -1.856422 -7 0 
C -7 1.856422 -6.262436 3.637059 -4.949747 4.949747 
C -3.637059 6.262436 -1.856422 7 0 7 
z
" id="C1_0_5660149194"/>
    </defs>
    <g clip-path="url(#pd8b988c8dc)">
     <use style="fill:#00008b;fill-opacity:0.8;stroke:#ffffff;stroke-opacity:0.8;" x="233.55" xlink:href="#C1_0_5660149194" y="474.987076"/>
    </g>
    <g clip-path="url(#pd8b988c8dc)">
     <use style="fill:#00008b;fill-opacity:0.8;stroke:#ffffff;stroke-opacity:0.8;" x="217.8" xlink:href="#C1_0_5660149194" y="474.987076"/>
    </g>
    <g clip-path="url(#pd8b988c8dc)">
     <use style="fill:#00008b;fill-opacity:0.8;stroke:#ffffff;stroke-opacity:0.8;" x="249.3" xlink:href="#C1_0_5660149194" y="474.987076"/>
    </g>
    <g clip-path="url(#pd8b988c8dc)">
     <use style="fill:#1e90ff;fill-opacity:0.8;stroke:#ffffff;stroke-opacity:0.8;" x="202.05" xlink:href="#C1_0_5660149194" y="474.987076"/>
    </g>
    <g clip-path="url(#pd8b988c8dc)">
     <use style="fill:#1e90ff;fill-opacity:0.8;stroke:#ffffff;stroke-opacity:0.8;" x="265.05" xlink:href="#C1_0_5660149194" y="474.987076"/>
    </g>
    <g clip-path="url(#pd8b988c8dc)">
     <use style="fill:#1e90ff;fill-opacity:0.8;stroke:#ffffff;stroke-opacity:0.8;" x="200.07" xlink:href="#C1_0_5660149194" y="474.987076"/>
    </g>
    <g clip-path="url(#pd8b988c8dc)">
     <use style="fill:#40e0d0;fill-opacity:0.8;stroke:#ffffff;stroke-opacity:0.8;" x="267.03" xlink:href="#C1_0_5660149194" y="474.987076"/>
    </g>
    <g clip-path="url(#pd8b988c8dc)">
     <use style="fill:#40e0d0;fill-opacity:0.8;stroke:#ffffff;stroke-opacity:0.8;" x="200.07" xlink:href="#C1_0_5660149194" y="474.987076"/>
    </g>
    <g clip-path="url(#pd8b988c8dc)">
     <use style="fill:#40e0d0;fill-opacity:0.8;stroke:#ffffff;stroke-opacity:0.8;" x="267.03" xlink:href="#C1_0_5660149194" y="474.987076"/>
    </g>
    <g clip-path="url(#pd8b988c8dc)">
     <use style="fill:#008000;fill-opacity:0.8;stroke:#ffffff;stroke-opacity:0.8;" x="200.07" xlink:href="#C1_0_5660149194" y="474.987076"/>
    </g>
    <g clip-path="url(#pd8b988c8dc)">
     <use style="fill:#008000;fill-opacity:0.8;stroke:#ffffff;stroke-opacity:0.8;" x="267.03" xlink:href="#C1_0_5660149194" y="474.987076"/>
    </g>
    <g clip-path="url(#pd8b988c8dc)">
     <use style="fill:#bfbf00;fill-opacity:0.8;stroke:#ffffff;stroke-opacity:0.8;" x="200.07" xlink:href="#C1_0_5660149194" y="474.987076"/>
    </g>
    <g clip-path="url(#pd8b988c8dc)">
     <use style="fill:#bfbf00;fill-opacity:0.8;stroke:#ffffff;stroke-opacity:0.8;" x="267.03" xlink:href="#C1_0_5660149194" y="470.413068"/>
    </g>
    <g clip-path="url(#pd8b988c8dc)">
     <use style="fill:#008000;fill-opacity:0.8;stroke:#ffffff;stroke-opacity:0.8;" x="233.55" xlink:href="#C1_0_5660149194" y="454.404041"/>
    </g>
    <g clip-path="url(#pd8b988c8dc)">
     <use style="fill:#bfbf00;fill-opacity:0.8;stroke:#ffffff;stroke-opacity:0.8;" x="233.55" xlink:href="#C1_0_5660149194" y="424.67299"/>
    </g>
   </g>
   <g id="PathCollection_8">
    <defs>
     <path d="M 0 7 
C 1.856422 7 3.637059 6.262436 4.949747 4.949747 
C 6.262436 3.637059 7 1.856422 7 0 
C 7 -1.856422 6.262436 -3.637059 4.949747 -4.949747 
C 3.637059 -6.262436 1.856422 -7 0 -7 
C -1.856422 -7 -3.637059 -6.262436 -4.949747 -4.949747 
C -6.262436 -3.637059 -7 -1.856422 -7 0 
C -7 1.856422 -6.262436 3.637059 -4.949747 4.949747 
C -3.637059 6.262436 -1.856422 7 0 7 
z
" id="C2_0_55ec23d7ea"/>
    </defs>
    <g clip-path="url(#pd8b988c8dc)">
     <use style="fill:#00008b;fill-opacity:0.8;stroke:#ffffff;stroke-opacity:0.8;" x="317.25" xlink:href="#C2_0_55ec23d7ea" y="474.987076"/>
    </g>
    <g clip-path="url(#pd8b988c8dc)">
     <use style="fill:#1e90ff;fill-opacity:0.8;stroke:#ffffff;stroke-opacity:0.8;" x="301.5" xlink:href="#C2_0_55ec23d7ea" y="474.987076"/>
    </g>
    <g clip-path="url(#pd8b988c8dc)">
     <use style="fill:#40e0d0;fill-opacity:0.8;stroke:#ffffff;stroke-opacity:0.8;" x="333" xlink:href="#C2_0_55ec23d7ea" y="474.987076"/>
    </g>
    <g clip-path="url(#pd8b988c8dc)">
     <use style="fill:#40e0d0;fill-opacity:0.8;stroke:#ffffff;stroke-opacity:0.8;" x="285.75" xlink:href="#C2_0_55ec23d7ea" y="474.987076"/>
    </g>
    <g clip-path="url(#pd8b988c8dc)">
     <use style="fill:#00008b;fill-opacity:0.8;stroke:#ffffff;stroke-opacity:0.8;" x="347.005855" xlink:href="#C2_0_55ec23d7ea" y="468.126064"/>
    </g>
    <g clip-path="url(#pd8b988c8dc)">
     <use style="fill:#1e90ff;fill-opacity:0.8;stroke:#ffffff;stroke-opacity:0.8;" x="283.77" xlink:href="#C2_0_55ec23d7ea" y="468.126064"/>
    </g>
    <g clip-path="url(#pd8b988c8dc)">
     <use style="fill:#00008b;fill-opacity:0.8;stroke:#ffffff;stroke-opacity:0.8;" x="350.73" xlink:href="#C2_0_55ec23d7ea" y="465.83906"/>
    </g>
    <g clip-path="url(#pd8b988c8dc)">
     <use style="fill:#1e90ff;fill-opacity:0.8;stroke:#ffffff;stroke-opacity:0.8;" x="283.77" xlink:href="#C2_0_55ec23d7ea" y="463.552057"/>
    </g>
    <g clip-path="url(#pd8b988c8dc)">
     <use style="fill:#008000;fill-opacity:0.8;stroke:#ffffff;stroke-opacity:0.8;" x="317.25" xlink:href="#C2_0_55ec23d7ea" y="454.404041"/>
    </g>
    <g clip-path="url(#pd8b988c8dc)">
     <use style="fill:#008000;fill-opacity:0.8;stroke:#ffffff;stroke-opacity:0.8;" x="301.5" xlink:href="#C2_0_55ec23d7ea" y="454.404041"/>
    </g>
    <g clip-path="url(#pd8b988c8dc)">
     <use style="fill:#bfbf00;fill-opacity:0.8;stroke:#ffffff;stroke-opacity:0.8;" x="333" xlink:href="#C2_0_55ec23d7ea" y="454.404041"/>
    </g>
    <g clip-path="url(#pd8b988c8dc)">
     <use style="fill:#bfbf00;fill-opacity:0.8;stroke:#ffffff;stroke-opacity:0.8;" x="285.75" xlink:href="#C2_0_55ec23d7ea" y="454.404041"/>
    </g>
    <g clip-path="url(#pd8b988c8dc)">
     <use style="fill:#40e0d0;fill-opacity:0.8;stroke:#ffffff;stroke-opacity:0.8;" x="347.005855" xlink:href="#C2_0_55ec23d7ea" y="447.543029"/>
    </g>
    <g clip-path="url(#pd8b988c8dc)">
     <use style="fill:#bfbf00;fill-opacity:0.8;stroke:#ffffff;stroke-opacity:0.8;" x="317.25" xlink:href="#C2_0_55ec23d7ea" y="431.534002"/>
    </g>
    <g clip-path="url(#pd8b988c8dc)">
     <use style="fill:#008000;fill-opacity:0.8;stroke:#ffffff;stroke-opacity:0.8;" x="317.25" xlink:href="#C2_0_55ec23d7ea" y="408.663963"/>
    </g>
   </g>
   <g id="PathCollection_9">
    <defs>
     <path d="M 0 7 
C 1.856422 7 3.637059 6.262436 4.949747 4.949747 
C 6.262436 3.637059 7 1.856422 7 0 
C 7 -1.856422 6.262436 -3.637059 4.949747 -4.949747 
C 3.637059 -6.262436 1.856422 -7 0 -7 
C -1.856422 -7 -3.637059 -6.262436 -4.949747 -4.949747 
C -6.262436 -3.637059 -7 -1.856422 -7 0 
C -7 1.856422 -6.262436 3.637059 -4.949747 4.949747 
C -3.637059 6.262436 -1.856422 7 0 7 
z
" id="C3_0_16dac82b70"/>
    </defs>
    <g clip-path="url(#pd8b988c8dc)">
     <use style="fill:#bfbf00;fill-opacity:0.8;stroke:#ffffff;stroke-opacity:0.8;" x="400.95" xlink:href="#C3_0_16dac82b70" y="470.413068"/>
    </g>
    <g clip-path="url(#pd8b988c8dc)">
     <use style="fill:#40e0d0;fill-opacity:0.8;stroke:#ffffff;stroke-opacity:0.8;" x="400.95" xlink:href="#C3_0_16dac82b70" y="454.404041"/>
    </g>
    <g clip-path="url(#pd8b988c8dc)">
     <use style="fill:#00008b;fill-opacity:0.8;stroke:#ffffff;stroke-opacity:0.8;" x="385.38414" xlink:href="#C3_0_16dac82b70" y="452.117037"/>
    </g>
    <g clip-path="url(#pd8b988c8dc)">
     <use style="fill:#1e90ff;fill-opacity:0.8;stroke:#ffffff;stroke-opacity:0.8;" x="416.51586" xlink:href="#C3_0_16dac82b70" y="452.117037"/>
    </g>
    <g clip-path="url(#pd8b988c8dc)">
     <use style="fill:#40e0d0;fill-opacity:0.8;stroke:#ffffff;stroke-opacity:0.8;" x="369.81828" xlink:href="#C3_0_16dac82b70" y="449.830033"/>
    </g>
    <g clip-path="url(#pd8b988c8dc)">
     <use style="fill:#bfbf00;fill-opacity:0.8;stroke:#ffffff;stroke-opacity:0.8;" x="432.08172" xlink:href="#C3_0_16dac82b70" y="449.830033"/>
    </g>
    <g clip-path="url(#pd8b988c8dc)">
     <use style="fill:#008000;fill-opacity:0.8;stroke:#ffffff;stroke-opacity:0.8;" x="367.47" xlink:href="#C3_0_16dac82b70" y="445.256025"/>
    </g>
    <g clip-path="url(#pd8b988c8dc)">
     <use style="fill:#40e0d0;fill-opacity:0.8;stroke:#ffffff;stroke-opacity:0.8;" x="400.95" xlink:href="#C3_0_16dac82b70" y="438.395014"/>
    </g>
    <g clip-path="url(#pd8b988c8dc)">
     <use style="fill:#00008b;fill-opacity:0.8;stroke:#ffffff;stroke-opacity:0.8;" x="400.95" xlink:href="#C3_0_16dac82b70" y="406.376959"/>
    </g>
    <g clip-path="url(#pd8b988c8dc)">
     <use style="fill:#1e90ff;fill-opacity:0.8;stroke:#ffffff;stroke-opacity:0.8;" x="385.2" xlink:href="#C3_0_16dac82b70" y="406.376959"/>
    </g>
    <g clip-path="url(#pd8b988c8dc)">
     <use style="fill:#00008b;fill-opacity:0.8;stroke:#ffffff;stroke-opacity:0.8;" x="416.51586" xlink:href="#C3_0_16dac82b70" y="404.089955"/>
    </g>
    <g clip-path="url(#pd8b988c8dc)">
     <use style="fill:#1e90ff;fill-opacity:0.8;stroke:#ffffff;stroke-opacity:0.8;" x="369.63414" xlink:href="#C3_0_16dac82b70" y="404.089955"/>
    </g>
    <g clip-path="url(#pd8b988c8dc)">
     <use style="fill:#008000;fill-opacity:0.8;stroke:#ffffff;stroke-opacity:0.8;" x="400.95" xlink:href="#C3_0_16dac82b70" y="360.636881"/>
    </g>
    <g clip-path="url(#pd8b988c8dc)">
     <use style="fill:#008000;fill-opacity:0.8;stroke:#ffffff;stroke-opacity:0.8;" x="400.95" xlink:href="#C3_0_16dac82b70" y="246.286685"/>
    </g>
    <g clip-path="url(#pd8b988c8dc)">
     <use style="fill:#bfbf00;fill-opacity:0.8;stroke:#ffffff;stroke-opacity:0.8;" x="385.38414" xlink:href="#C3_0_16dac82b70" y="243.999681"/>
    </g>
   </g>
   <g id="PathCollection_10">
    <defs>
     <path d="M 0 7 
C 1.856422 7 3.637059 6.262436 4.949747 4.949747 
C 6.262436 3.637059 7 1.856422 7 0 
C 7 -1.856422 6.262436 -3.637059 4.949747 -4.949747 
C 3.637059 -6.262436 1.856422 -7 0 -7 
C -1.856422 -7 -3.637059 -6.262436 -4.949747 -4.949747 
C -6.262436 -3.637059 -7 -1.856422 -7 0 
C -7 1.856422 -6.262436 3.637059 -4.949747 4.949747 
C -3.637059 6.262436 -1.856422 7 0 7 
z
" id="C4_0_89f49b1af2"/>
    </defs>
    <g clip-path="url(#pd8b988c8dc)">
     <use style="fill:#bfbf00;fill-opacity:0.8;stroke:#ffffff;stroke-opacity:0.8;" x="484.65" xlink:href="#C4_0_89f49b1af2" y="474.987076"/>
    </g>
    <g clip-path="url(#pd8b988c8dc)">
     <use style="fill:#00008b;fill-opacity:0.8;stroke:#ffffff;stroke-opacity:0.8;" x="470.644145" xlink:href="#C4_0_89f49b1af2" y="468.126064"/>
    </g>
    <g clip-path="url(#pd8b988c8dc)">
     <use style="fill:#00008b;fill-opacity:0.8;stroke:#ffffff;stroke-opacity:0.8;" x="498.655855" xlink:href="#C4_0_89f49b1af2" y="468.126064"/>
    </g>
    <g clip-path="url(#pd8b988c8dc)">
     <use style="fill:#1e90ff;fill-opacity:0.8;stroke:#ffffff;stroke-opacity:0.8;" x="454.894145" xlink:href="#C4_0_89f49b1af2" y="468.126064"/>
    </g>
    <g clip-path="url(#pd8b988c8dc)">
     <use style="fill:#1e90ff;fill-opacity:0.8;stroke:#ffffff;stroke-opacity:0.8;" x="514.405855" xlink:href="#C4_0_89f49b1af2" y="468.126064"/>
    </g>
    <g clip-path="url(#pd8b988c8dc)">
     <use style="fill:#bfbf00;fill-opacity:0.8;stroke:#ffffff;stroke-opacity:0.8;" x="484.65" xlink:href="#C4_0_89f49b1af2" y="445.256025"/>
    </g>
    <g clip-path="url(#pd8b988c8dc)">
     <use style="fill:#40e0d0;fill-opacity:0.8;stroke:#ffffff;stroke-opacity:0.8;" x="469.650117" xlink:href="#C4_0_89f49b1af2" y="440.682017"/>
    </g>
    <g clip-path="url(#pd8b988c8dc)">
     <use style="fill:#bfbf00;fill-opacity:0.8;stroke:#ffffff;stroke-opacity:0.8;" x="484.65" xlink:href="#C4_0_89f49b1af2" y="420.098982"/>
    </g>
    <g clip-path="url(#pd8b988c8dc)">
     <use style="fill:#00008b;fill-opacity:0.8;stroke:#ffffff;stroke-opacity:0.8;" x="470.644145" xlink:href="#C4_0_89f49b1af2" y="413.237971"/>
    </g>
    <g clip-path="url(#pd8b988c8dc)">
     <use style="fill:#1e90ff;fill-opacity:0.8;stroke:#ffffff;stroke-opacity:0.8;" x="498.655855" xlink:href="#C4_0_89f49b1af2" y="413.237971"/>
    </g>
    <g clip-path="url(#pd8b988c8dc)">
     <use style="fill:#008000;fill-opacity:0.8;stroke:#ffffff;stroke-opacity:0.8;" x="484.65" xlink:href="#C4_0_89f49b1af2" y="388.080928"/>
    </g>
    <g clip-path="url(#pd8b988c8dc)">
     <use style="fill:#008000;fill-opacity:0.8;stroke:#ffffff;stroke-opacity:0.8;" x="469.650117" xlink:href="#C4_0_89f49b1af2" y="383.50692"/>
    </g>
    <g clip-path="url(#pd8b988c8dc)">
     <use style="fill:#008000;fill-opacity:0.8;stroke:#ffffff;stroke-opacity:0.8;" x="494.843133" xlink:href="#C4_0_89f49b1af2" y="376.645908"/>
    </g>
    <g clip-path="url(#pd8b988c8dc)">
     <use style="fill:#40e0d0;fill-opacity:0.8;stroke:#ffffff;stroke-opacity:0.8;" x="484.65" xlink:href="#C4_0_89f49b1af2" y="312.609799"/>
    </g>
    <g clip-path="url(#pd8b988c8dc)">
     <use style="fill:#40e0d0;fill-opacity:0.8;stroke:#ffffff;stroke-opacity:0.8;" x="484.65" xlink:href="#C4_0_89f49b1af2" y="93.057423"/>
    </g>
   </g>
   <g id="PathCollection_11">
    <defs>
     <path d="M 0 7 
C 1.856422 7 3.637059 6.262436 4.949747 4.949747 
C 6.262436 3.637059 7 1.856422 7 0 
C 7 -1.856422 6.262436 -3.637059 4.949747 -4.949747 
C 3.637059 -6.262436 1.856422 -7 0 -7 
C -1.856422 -7 -3.637059 -6.262436 -4.949747 -4.949747 
C -6.262436 -3.637059 -7 -1.856422 -7 0 
C -7 1.856422 -6.262436 3.637059 -4.949747 4.949747 
C -3.637059 6.262436 -1.856422 7 0 7 
z
" id="C5_0_d54ec2ee49"/>
    </defs>
    <g clip-path="url(#pd8b988c8dc)">
     <use style="fill:#00008b;fill-opacity:0.8;stroke:#ffffff;stroke-opacity:0.8;" x="568.35" xlink:href="#C5_0_d54ec2ee49" y="474.987076"/>
    </g>
    <g clip-path="url(#pd8b988c8dc)">
     <use style="fill:#00008b;fill-opacity:0.8;stroke:#ffffff;stroke-opacity:0.8;" x="552.6" xlink:href="#C5_0_d54ec2ee49" y="474.987076"/>
    </g>
    <g clip-path="url(#pd8b988c8dc)">
     <use style="fill:#00008b;fill-opacity:0.8;stroke:#ffffff;stroke-opacity:0.8;" x="584.1" xlink:href="#C5_0_d54ec2ee49" y="474.987076"/>
    </g>
    <g clip-path="url(#pd8b988c8dc)">
     <use style="fill:#1e90ff;fill-opacity:0.8;stroke:#ffffff;stroke-opacity:0.8;" x="536.85" xlink:href="#C5_0_d54ec2ee49" y="474.987076"/>
    </g>
    <g clip-path="url(#pd8b988c8dc)">
     <use style="fill:#1e90ff;fill-opacity:0.8;stroke:#ffffff;stroke-opacity:0.8;" x="599.85" xlink:href="#C5_0_d54ec2ee49" y="474.987076"/>
    </g>
    <g clip-path="url(#pd8b988c8dc)">
     <use style="fill:#1e90ff;fill-opacity:0.8;stroke:#ffffff;stroke-opacity:0.8;" x="534.87" xlink:href="#C5_0_d54ec2ee49" y="474.987076"/>
    </g>
    <g clip-path="url(#pd8b988c8dc)">
     <use style="fill:#40e0d0;fill-opacity:0.8;stroke:#ffffff;stroke-opacity:0.8;" x="601.83" xlink:href="#C5_0_d54ec2ee49" y="474.987076"/>
    </g>
    <g clip-path="url(#pd8b988c8dc)">
     <use style="fill:#40e0d0;fill-opacity:0.8;stroke:#ffffff;stroke-opacity:0.8;" x="534.87" xlink:href="#C5_0_d54ec2ee49" y="474.987076"/>
    </g>
    <g clip-path="url(#pd8b988c8dc)">
     <use style="fill:#40e0d0;fill-opacity:0.8;stroke:#ffffff;stroke-opacity:0.8;" x="601.83" xlink:href="#C5_0_d54ec2ee49" y="474.987076"/>
    </g>
    <g clip-path="url(#pd8b988c8dc)">
     <use style="fill:#008000;fill-opacity:0.8;stroke:#ffffff;stroke-opacity:0.8;" x="534.87" xlink:href="#C5_0_d54ec2ee49" y="474.987076"/>
    </g>
    <g clip-path="url(#pd8b988c8dc)">
     <use style="fill:#bfbf00;fill-opacity:0.8;stroke:#ffffff;stroke-opacity:0.8;" x="601.83" xlink:href="#C5_0_d54ec2ee49" y="474.987076"/>
    </g>
    <g clip-path="url(#pd8b988c8dc)">
     <use style="fill:#008000;fill-opacity:0.8;stroke:#ffffff;stroke-opacity:0.8;" x="534.87" xlink:href="#C5_0_d54ec2ee49" y="472.700072"/>
    </g>
    <g clip-path="url(#pd8b988c8dc)">
     <use style="fill:#bfbf00;fill-opacity:0.8;stroke:#ffffff;stroke-opacity:0.8;" x="601.83" xlink:href="#C5_0_d54ec2ee49" y="472.700072"/>
    </g>
    <g clip-path="url(#pd8b988c8dc)">
     <use style="fill:#008000;fill-opacity:0.8;stroke:#ffffff;stroke-opacity:0.8;" x="568.35" xlink:href="#C5_0_d54ec2ee49" y="420.098982"/>
    </g>
    <g clip-path="url(#pd8b988c8dc)">
     <use style="fill:#bfbf00;fill-opacity:0.8;stroke:#ffffff;stroke-opacity:0.8;" x="568.35" xlink:href="#C5_0_d54ec2ee49" y="372.0719"/>
    </g>
   </g>
   <g id="PathCollection_12">
    <defs>
     <path d="M 0 7 
C 1.856422 7 3.637059 6.262436 4.949747 4.949747 
C 6.262436 3.637059 7 1.856422 7 0 
C 7 -1.856422 6.262436 -3.637059 4.949747 -4.949747 
C 3.637059 -6.262436 1.856422 -7 0 -7 
C -1.856422 -7 -3.637059 -6.262436 -4.949747 -4.949747 
C -6.262436 -3.637059 -7 -1.856422 -7 0 
C -7 1.856422 -6.262436 3.637059 -4.949747 4.949747 
C -3.637059 6.262436 -1.856422 7 0 7 
z
" id="C6_0_1d5f18c01c"/>
    </defs>
    <g clip-path="url(#pd8b988c8dc)">
     <use style="fill:#00008b;fill-opacity:0.8;stroke:#ffffff;stroke-opacity:0.8;" x="652.05" xlink:href="#C6_0_1d5f18c01c" y="477.27408"/>
    </g>
    <g clip-path="url(#pd8b988c8dc)">
     <use style="fill:#1e90ff;fill-opacity:0.8;stroke:#ffffff;stroke-opacity:0.8;" x="636.3" xlink:href="#C6_0_1d5f18c01c" y="477.27408"/>
    </g>
    <g clip-path="url(#pd8b988c8dc)">
     <use style="fill:#40e0d0;fill-opacity:0.8;stroke:#ffffff;stroke-opacity:0.8;" x="667.8" xlink:href="#C6_0_1d5f18c01c" y="477.27408"/>
    </g>
    <g clip-path="url(#pd8b988c8dc)">
     <use style="fill:#00008b;fill-opacity:0.8;stroke:#ffffff;stroke-opacity:0.8;" x="620.73414" xlink:href="#C6_0_1d5f18c01c" y="474.987076"/>
    </g>
    <g clip-path="url(#pd8b988c8dc)">
     <use style="fill:#00008b;fill-opacity:0.8;stroke:#ffffff;stroke-opacity:0.8;" x="683.36586" xlink:href="#C6_0_1d5f18c01c" y="474.987076"/>
    </g>
    <g clip-path="url(#pd8b988c8dc)">
     <use style="fill:#1e90ff;fill-opacity:0.8;stroke:#ffffff;stroke-opacity:0.8;" x="618.57" xlink:href="#C6_0_1d5f18c01c" y="474.987076"/>
    </g>
    <g clip-path="url(#pd8b988c8dc)">
     <use style="fill:#1e90ff;fill-opacity:0.8;stroke:#ffffff;stroke-opacity:0.8;" x="685.53" xlink:href="#C6_0_1d5f18c01c" y="474.987076"/>
    </g>
    <g clip-path="url(#pd8b988c8dc)">
     <use style="fill:#40e0d0;fill-opacity:0.8;stroke:#ffffff;stroke-opacity:0.8;" x="618.57" xlink:href="#C6_0_1d5f18c01c" y="474.987076"/>
    </g>
    <g clip-path="url(#pd8b988c8dc)">
     <use style="fill:#008000;fill-opacity:0.8;stroke:#ffffff;stroke-opacity:0.8;" x="685.53" xlink:href="#C6_0_1d5f18c01c" y="474.987076"/>
    </g>
    <g clip-path="url(#pd8b988c8dc)">
     <use style="fill:#bfbf00;fill-opacity:0.8;stroke:#ffffff;stroke-opacity:0.8;" x="618.57" xlink:href="#C6_0_1d5f18c01c" y="474.987076"/>
    </g>
    <g clip-path="url(#pd8b988c8dc)">
     <use style="fill:#40e0d0;fill-opacity:0.8;stroke:#ffffff;stroke-opacity:0.8;" x="685.53" xlink:href="#C6_0_1d5f18c01c" y="472.700072"/>
    </g>
    <g clip-path="url(#pd8b988c8dc)">
     <use style="fill:#008000;fill-opacity:0.8;stroke:#ffffff;stroke-opacity:0.8;" x="618.57" xlink:href="#C6_0_1d5f18c01c" y="472.700072"/>
    </g>
    <g clip-path="url(#pd8b988c8dc)">
     <use style="fill:#bfbf00;fill-opacity:0.8;stroke:#ffffff;stroke-opacity:0.8;" x="685.53" xlink:href="#C6_0_1d5f18c01c" y="468.126064"/>
    </g>
    <g clip-path="url(#pd8b988c8dc)">
     <use style="fill:#bfbf00;fill-opacity:0.8;stroke:#ffffff;stroke-opacity:0.8;" x="618.57" xlink:href="#C6_0_1d5f18c01c" y="468.126064"/>
    </g>
    <g clip-path="url(#pd8b988c8dc)">
     <use style="fill:#008000;fill-opacity:0.8;stroke:#ffffff;stroke-opacity:0.8;" x="652.05" xlink:href="#C6_0_1d5f18c01c" y="461.265053"/>
    </g>
   </g>
   <g id="PathCollection_13">
    <defs>
     <path d="M 0 7 
C 1.856422 7 3.637059 6.262436 4.949747 4.949747 
C 6.262436 3.637059 7 1.856422 7 0 
C 7 -1.856422 6.262436 -3.637059 4.949747 -4.949747 
C 3.637059 -6.262436 1.856422 -7 0 -7 
C -1.856422 -7 -3.637059 -6.262436 -4.949747 -4.949747 
C -6.262436 -3.637059 -7 -1.856422 -7 0 
C -7 1.856422 -6.262436 3.637059 -4.949747 4.949747 
C -3.637059 6.262436 -1.856422 7 0 7 
z
" id="C7_0_6c790af660"/>
    </defs>
    <g clip-path="url(#pd8b988c8dc)">
     <use style="fill:#1e90ff;fill-opacity:0.8;stroke:#ffffff;stroke-opacity:0.8;" x="735.75" xlink:href="#C7_0_6c790af660" y="474.987076"/>
    </g>
    <g clip-path="url(#pd8b988c8dc)">
     <use style="fill:#1e90ff;fill-opacity:0.8;stroke:#ffffff;stroke-opacity:0.8;" x="720" xlink:href="#C7_0_6c790af660" y="474.987076"/>
    </g>
    <g clip-path="url(#pd8b988c8dc)">
     <use style="fill:#1e90ff;fill-opacity:0.8;stroke:#ffffff;stroke-opacity:0.8;" x="751.5" xlink:href="#C7_0_6c790af660" y="474.987076"/>
    </g>
    <g clip-path="url(#pd8b988c8dc)">
     <use style="fill:#40e0d0;fill-opacity:0.8;stroke:#ffffff;stroke-opacity:0.8;" x="704.25" xlink:href="#C7_0_6c790af660" y="474.987076"/>
    </g>
    <g clip-path="url(#pd8b988c8dc)">
     <use style="fill:#40e0d0;fill-opacity:0.8;stroke:#ffffff;stroke-opacity:0.8;" x="767.25" xlink:href="#C7_0_6c790af660" y="474.987076"/>
    </g>
    <g clip-path="url(#pd8b988c8dc)">
     <use style="fill:#40e0d0;fill-opacity:0.8;stroke:#ffffff;stroke-opacity:0.8;" x="702.27" xlink:href="#C7_0_6c790af660" y="474.987076"/>
    </g>
    <g clip-path="url(#pd8b988c8dc)">
     <use style="fill:#008000;fill-opacity:0.8;stroke:#ffffff;stroke-opacity:0.8;" x="769.23" xlink:href="#C7_0_6c790af660" y="474.987076"/>
    </g>
    <g clip-path="url(#pd8b988c8dc)">
     <use style="fill:#bfbf00;fill-opacity:0.8;stroke:#ffffff;stroke-opacity:0.8;" x="702.27" xlink:href="#C7_0_6c790af660" y="474.987076"/>
    </g>
    <g clip-path="url(#pd8b988c8dc)">
     <use style="fill:#bfbf00;fill-opacity:0.8;stroke:#ffffff;stroke-opacity:0.8;" x="769.23" xlink:href="#C7_0_6c790af660" y="474.987076"/>
    </g>
    <g clip-path="url(#pd8b988c8dc)">
     <use style="fill:#00008b;fill-opacity:0.8;stroke:#ffffff;stroke-opacity:0.8;" x="702.27" xlink:href="#C7_0_6c790af660" y="472.700072"/>
    </g>
    <g clip-path="url(#pd8b988c8dc)">
     <use style="fill:#00008b;fill-opacity:0.8;stroke:#ffffff;stroke-opacity:0.8;" x="769.23" xlink:href="#C7_0_6c790af660" y="472.700072"/>
    </g>
    <g clip-path="url(#pd8b988c8dc)">
     <use style="fill:#00008b;fill-opacity:0.8;stroke:#ffffff;stroke-opacity:0.8;" x="702.27" xlink:href="#C7_0_6c790af660" y="468.126064"/>
    </g>
    <g clip-path="url(#pd8b988c8dc)">
     <use style="fill:#008000;fill-opacity:0.8;stroke:#ffffff;stroke-opacity:0.8;" x="769.23" xlink:href="#C7_0_6c790af660" y="468.126064"/>
    </g>
    <g clip-path="url(#pd8b988c8dc)">
     <use style="fill:#bfbf00;fill-opacity:0.8;stroke:#ffffff;stroke-opacity:0.8;" x="735.75" xlink:href="#C7_0_6c790af660" y="415.524974"/>
    </g>
    <g clip-path="url(#pd8b988c8dc)">
     <use style="fill:#008000;fill-opacity:0.8;stroke:#ffffff;stroke-opacity:0.8;" x="720.750117" xlink:href="#C7_0_6c790af660" y="410.950967"/>
    </g>
   </g>
   <g id="text_19">
    <!-- Jazz 2016 -->
    <defs>
     <path d="M 9.8125 72.90625 
L 19.671875 72.90625 
L 19.671875 5.078125 
Q 19.671875 -8.109375 14.671875 -14.0625 
Q 9.671875 -20.015625 -1.421875 -20.015625 
L -5.171875 -20.015625 
L -5.171875 -11.71875 
L -2.09375 -11.71875 
Q 4.4375 -11.71875 7.125 -8.046875 
Q 9.8125 -4.390625 9.8125 5.078125 
z
" id="DejaVuSans-74"/>
     <path d="M 5.515625 54.6875 
L 48.1875 54.6875 
L 48.1875 46.484375 
L 14.40625 7.171875 
L 48.1875 7.171875 
L 48.1875 0 
L 4.296875 0 
L 4.296875 8.203125 
L 38.09375 47.515625 
L 5.515625 47.515625 
z
" id="DejaVuSans-122"/>
    </defs>
    <g style="fill:#0000ff;" transform="translate(330.379813 179.252689)scale(0.14 -0.14)">
     <use xlink:href="#DejaVuSans-74"/>
     <use x="29.492188" xlink:href="#DejaVuSans-97"/>
     <use x="90.771484" xlink:href="#DejaVuSans-122"/>
     <use x="143.261719" xlink:href="#DejaVuSans-122"/>
     <use x="195.751953" xlink:href="#DejaVuSans-32"/>
     <use x="227.539062" xlink:href="#DejaVuSans-50"/>
     <use x="291.162109" xlink:href="#DejaVuSans-48"/>
     <use x="354.785156" xlink:href="#DejaVuSans-49"/>
     <use x="418.408203" xlink:href="#DejaVuSans-54"/>
    </g>
   </g>
   <g id="patch_7">
    <path d="M 456.421473 186.367183 
Q 364.12304 186.367183 271.824608 186.367183 
" style="fill:none;opacity:0.8;stroke:#0000ff;stroke-linecap:round;"/>
    <path d="M 452.421473 184.367183 
L 456.421473 186.367183 
L 452.421473 188.367183 
L 452.421473 184.367183 
z
" style="fill:#0000ff;opacity:0.8;stroke:#0000ff;stroke-linecap:round;"/>
    <path d="M 275.824608 188.367183 
L 271.824608 186.367183 
L 275.824608 184.367183 
L 275.824608 188.367183 
z
" style="fill:#0000ff;opacity:0.8;stroke:#0000ff;stroke-linecap:round;"/>
   </g>
   <g id="text_20">
    <!-- Jazz 2017 -->
    <g style="fill:#ff0000;" transform="translate(400.687812 140.831023)scale(0.14 -0.14)">
     <use xlink:href="#DejaVuSans-74"/>
     <use x="29.492188" xlink:href="#DejaVuSans-97"/>
     <use x="90.771484" xlink:href="#DejaVuSans-122"/>
     <use x="143.261719" xlink:href="#DejaVuSans-122"/>
     <use x="195.751953" xlink:href="#DejaVuSans-32"/>
     <use x="227.539062" xlink:href="#DejaVuSans-50"/>
     <use x="291.162109" xlink:href="#DejaVuSans-48"/>
     <use x="354.785156" xlink:href="#DejaVuSans-49"/>
     <use x="418.408203" xlink:href="#DejaVuSans-55"/>
    </g>
   </g>
   <g id="patch_8">
    <path d="M 530.076119 147.945517 
Q 441.963033 147.945517 353.849948 147.945517 
" style="fill:none;opacity:0.8;stroke:#ff0000;stroke-linecap:round;"/>
    <path d="M 526.076119 145.945517 
L 530.076119 147.945517 
L 526.076119 149.945517 
L 526.076119 145.945517 
z
" style="fill:#ff0000;opacity:0.8;stroke:#ff0000;stroke-linecap:round;"/>
    <path d="M 357.849948 149.945517 
L 353.849948 147.945517 
L 357.849948 145.945517 
L 357.849948 149.945517 
z
" style="fill:#ff0000;opacity:0.8;stroke:#ff0000;stroke-linecap:round;"/>
   </g>
   <g id="text_21">
    <!-- Colonies grouped by year and week number -->
    <defs>
     <path d="M 48.6875 27.296875 
Q 48.6875 37.203125 44.609375 42.84375 
Q 40.53125 48.484375 33.40625 48.484375 
Q 26.265625 48.484375 22.1875 42.84375 
Q 18.109375 37.203125 18.109375 27.296875 
Q 18.109375 17.390625 22.1875 11.75 
Q 26.265625 6.109375 33.40625 6.109375 
Q 40.53125 6.109375 44.609375 11.75 
Q 48.6875 17.390625 48.6875 27.296875 
z
M 18.109375 46.390625 
Q 20.953125 51.265625 25.265625 53.625 
Q 29.59375 56 35.59375 56 
Q 45.5625 56 51.78125 48.09375 
Q 58.015625 40.1875 58.015625 27.296875 
Q 58.015625 14.40625 51.78125 6.484375 
Q 45.5625 -1.421875 35.59375 -1.421875 
Q 29.59375 -1.421875 25.265625 0.953125 
Q 20.953125 3.328125 18.109375 8.203125 
L 18.109375 0 
L 9.078125 0 
L 9.078125 75.984375 
L 18.109375 75.984375 
z
" id="DejaVuSans-98"/>
    </defs>
    <g transform="translate(265.1975 50.0736)scale(0.16 -0.16)">
     <use xlink:href="#DejaVuSans-67"/>
     <use x="69.824219" xlink:href="#DejaVuSans-111"/>
     <use x="131.005859" xlink:href="#DejaVuSans-108"/>
     <use x="158.789062" xlink:href="#DejaVuSans-111"/>
     <use x="219.970703" xlink:href="#DejaVuSans-110"/>
     <use x="283.349609" xlink:href="#DejaVuSans-105"/>
     <use x="311.132812" xlink:href="#DejaVuSans-101"/>
     <use x="372.65625" xlink:href="#DejaVuSans-115"/>
     <use x="424.755859" xlink:href="#DejaVuSans-32"/>
     <use x="456.542969" xlink:href="#DejaVuSans-103"/>
     <use x="520.019531" xlink:href="#DejaVuSans-114"/>
     <use x="561.101562" xlink:href="#DejaVuSans-111"/>
     <use x="622.283203" xlink:href="#DejaVuSans-117"/>
     <use x="685.662109" xlink:href="#DejaVuSans-112"/>
     <use x="749.138672" xlink:href="#DejaVuSans-101"/>
     <use x="810.662109" xlink:href="#DejaVuSans-100"/>
     <use x="874.138672" xlink:href="#DejaVuSans-32"/>
     <use x="905.925781" xlink:href="#DejaVuSans-98"/>
     <use x="969.402344" xlink:href="#DejaVuSans-121"/>
     <use x="1028.582031" xlink:href="#DejaVuSans-32"/>
     <use x="1060.369141" xlink:href="#DejaVuSans-121"/>
     <use x="1119.548828" xlink:href="#DejaVuSans-101"/>
     <use x="1181.072266" xlink:href="#DejaVuSans-97"/>
     <use x="1242.351562" xlink:href="#DejaVuSans-114"/>
     <use x="1283.464844" xlink:href="#DejaVuSans-32"/>
     <use x="1315.251953" xlink:href="#DejaVuSans-97"/>
     <use x="1376.53125" xlink:href="#DejaVuSans-110"/>
     <use x="1439.910156" xlink:href="#DejaVuSans-100"/>
     <use x="1503.386719" xlink:href="#DejaVuSans-32"/>
     <use x="1535.173828" xlink:href="#DejaVuSans-119"/>
     <use x="1616.960938" xlink:href="#DejaVuSans-101"/>
     <use x="1678.484375" xlink:href="#DejaVuSans-101"/>
     <use x="1740.007812" xlink:href="#DejaVuSans-107"/>
     <use x="1797.917969" xlink:href="#DejaVuSans-32"/>
     <use x="1829.705078" xlink:href="#DejaVuSans-110"/>
     <use x="1893.083984" xlink:href="#DejaVuSans-117"/>
     <use x="1956.462891" xlink:href="#DejaVuSans-109"/>
     <use x="2053.875" xlink:href="#DejaVuSans-98"/>
     <use x="2117.351562" xlink:href="#DejaVuSans-101"/>
     <use x="2178.875" xlink:href="#DejaVuSans-114"/>
    </g>
   </g>
   <g id="legend_1">
    <g id="patch_9">
     <path d="M 634.883125 183.066875 
L 767.8 183.066875 
Q 770.6 183.066875 770.6 180.266875 
L 770.6 78.92 
Q 770.6 76.12 767.8 76.12 
L 634.883125 76.12 
Q 632.083125 76.12 632.083125 78.92 
L 632.083125 180.266875 
Q 632.083125 183.066875 634.883125 183.066875 
z
" style="fill:#ffffff;opacity:0.8;stroke:#cccccc;stroke-linejoin:miter;"/>
    </g>
    <g id="PathCollection_14">
     <defs>
      <path d="M 0 3.872983 
C 1.027127 3.872983 2.012324 3.464901 2.738613 2.738613 
C 3.464901 2.012324 3.872983 1.027127 3.872983 0 
C 3.872983 -1.027127 3.464901 -2.012324 2.738613 -2.738613 
C 2.012324 -3.464901 1.027127 -3.872983 0 -3.872983 
C -1.027127 -3.872983 -2.012324 -3.464901 -2.738613 -2.738613 
C -3.464901 -2.012324 -3.872983 -1.027127 -3.872983 0 
C -3.872983 1.027127 -3.464901 2.012324 -2.738613 2.738613 
C -2.012324 3.464901 -1.027127 3.872983 0 3.872983 
z
" id="mef810dad2b" style="stroke:#00008b;"/>
     </defs>
     <g>
      <use style="fill:#00008b;stroke:#00008b;" x="651.683125" xlink:href="#mef810dad2b" y="88.682812"/>
     </g>
    </g>
    <g id="text_22">
     <!-- uv 17 -->
     <g transform="translate(676.883125 92.357812)scale(0.14 -0.14)">
      <use xlink:href="#DejaVuSans-117"/>
      <use x="63.378906" xlink:href="#DejaVuSans-118"/>
      <use x="122.558594" xlink:href="#DejaVuSans-32"/>
      <use x="154.345703" xlink:href="#DejaVuSans-49"/>
      <use x="217.96875" xlink:href="#DejaVuSans-55"/>
     </g>
    </g>
    <g id="PathCollection_15">
     <defs>
      <path d="M 0 3.872983 
C 1.027127 3.872983 2.012324 3.464901 2.738613 2.738613 
C 3.464901 2.012324 3.872983 1.027127 3.872983 0 
C 3.872983 -1.027127 3.464901 -2.012324 2.738613 -2.738613 
C 2.012324 -3.464901 1.027127 -3.872983 0 -3.872983 
C -1.027127 -3.872983 -2.012324 -3.464901 -2.738613 -2.738613 
C -3.464901 -2.012324 -3.872983 -1.027127 -3.872983 0 
C -3.872983 1.027127 -3.464901 2.012324 -2.738613 2.738613 
C -2.012324 3.464901 -1.027127 3.872983 0 3.872983 
z
" id="m339d9f6c5e" style="stroke:#1e90ff;"/>
     </defs>
     <g>
      <use style="fill:#1e90ff;stroke:#1e90ff;" x="651.683125" xlink:href="#m339d9f6c5e" y="109.232187"/>
     </g>
    </g>
    <g id="text_23">
     <!-- big blue 17 -->
     <g transform="translate(676.883125 112.907187)scale(0.14 -0.14)">
      <use xlink:href="#DejaVuSans-98"/>
      <use x="63.476562" xlink:href="#DejaVuSans-105"/>
      <use x="91.259766" xlink:href="#DejaVuSans-103"/>
      <use x="154.736328" xlink:href="#DejaVuSans-32"/>
      <use x="186.523438" xlink:href="#DejaVuSans-98"/>
      <use x="250" xlink:href="#DejaVuSans-108"/>
      <use x="277.783203" xlink:href="#DejaVuSans-117"/>
      <use x="341.162109" xlink:href="#DejaVuSans-101"/>
      <use x="402.685547" xlink:href="#DejaVuSans-32"/>
      <use x="434.472656" xlink:href="#DejaVuSans-49"/>
      <use x="498.095703" xlink:href="#DejaVuSans-55"/>
     </g>
    </g>
    <g id="PathCollection_16">
     <defs>
      <path d="M 0 3.872983 
C 1.027127 3.872983 2.012324 3.464901 2.738613 2.738613 
C 3.464901 2.012324 3.872983 1.027127 3.872983 0 
C 3.872983 -1.027127 3.464901 -2.012324 2.738613 -2.738613 
C 2.012324 -3.464901 1.027127 -3.872983 0 -3.872983 
C -1.027127 -3.872983 -2.012324 -3.464901 -2.738613 -2.738613 
C -3.464901 -2.012324 -3.872983 -1.027127 -3.872983 0 
C -3.872983 1.027127 -3.464901 2.012324 -2.738613 2.738613 
C -2.012324 3.464901 -1.027127 3.872983 0 3.872983 
z
" id="m6a7b7ccc93" style="stroke:#40e0d0;"/>
     </defs>
     <g>
      <use style="fill:#40e0d0;stroke:#40e0d0;" x="651.683125" xlink:href="#m6a7b7ccc93" y="129.781562"/>
     </g>
    </g>
    <g id="text_24">
     <!-- med blue 17 -->
     <g transform="translate(676.883125 133.456562)scale(0.14 -0.14)">
      <use xlink:href="#DejaVuSans-109"/>
      <use x="97.412109" xlink:href="#DejaVuSans-101"/>
      <use x="158.935547" xlink:href="#DejaVuSans-100"/>
      <use x="222.412109" xlink:href="#DejaVuSans-32"/>
      <use x="254.199219" xlink:href="#DejaVuSans-98"/>
      <use x="317.675781" xlink:href="#DejaVuSans-108"/>
      <use x="345.458984" xlink:href="#DejaVuSans-117"/>
      <use x="408.837891" xlink:href="#DejaVuSans-101"/>
      <use x="470.361328" xlink:href="#DejaVuSans-32"/>
      <use x="502.148438" xlink:href="#DejaVuSans-49"/>
      <use x="565.771484" xlink:href="#DejaVuSans-55"/>
     </g>
    </g>
    <g id="PathCollection_17">
     <defs>
      <path d="M 0 3.872983 
C 1.027127 3.872983 2.012324 3.464901 2.738613 2.738613 
C 3.464901 2.012324 3.872983 1.027127 3.872983 0 
C 3.872983 -1.027127 3.464901 -2.012324 2.738613 -2.738613 
C 2.012324 -3.464901 1.027127 -3.872983 0 -3.872983 
C -1.027127 -3.872983 -2.012324 -3.464901 -2.738613 -2.738613 
C -3.464901 -2.012324 -3.872983 -1.027127 -3.872983 0 
C -3.872983 1.027127 -3.464901 2.012324 -2.738613 2.738613 
C -2.012324 3.464901 -1.027127 3.872983 0 3.872983 
z
" id="m7281bb03a3" style="stroke:#008000;"/>
     </defs>
     <g>
      <use style="fill:#008000;stroke:#008000;" x="651.683125" xlink:href="#m7281bb03a3" y="150.330937"/>
     </g>
    </g>
    <g id="text_25">
     <!-- big blue 16 -->
     <g transform="translate(676.883125 154.005937)scale(0.14 -0.14)">
      <use xlink:href="#DejaVuSans-98"/>
      <use x="63.476562" xlink:href="#DejaVuSans-105"/>
      <use x="91.259766" xlink:href="#DejaVuSans-103"/>
      <use x="154.736328" xlink:href="#DejaVuSans-32"/>
      <use x="186.523438" xlink:href="#DejaVuSans-98"/>
      <use x="250" xlink:href="#DejaVuSans-108"/>
      <use x="277.783203" xlink:href="#DejaVuSans-117"/>
      <use x="341.162109" xlink:href="#DejaVuSans-101"/>
      <use x="402.685547" xlink:href="#DejaVuSans-32"/>
      <use x="434.472656" xlink:href="#DejaVuSans-49"/>
      <use x="498.095703" xlink:href="#DejaVuSans-54"/>
     </g>
    </g>
    <g id="PathCollection_18">
     <defs>
      <path d="M 0 3.872983 
C 1.027127 3.872983 2.012324 3.464901 2.738613 2.738613 
C 3.464901 2.012324 3.872983 1.027127 3.872983 0 
C 3.872983 -1.027127 3.464901 -2.012324 2.738613 -2.738613 
C 2.012324 -3.464901 1.027127 -3.872983 0 -3.872983 
C -1.027127 -3.872983 -2.012324 -3.464901 -2.738613 -2.738613 
C -3.464901 -2.012324 -3.872983 -1.027127 -3.872983 0 
C -3.872983 1.027127 -3.464901 2.012324 -2.738613 2.738613 
C -2.012324 3.464901 -1.027127 3.872983 0 3.872983 
z
" id="m28a03e4620" style="stroke:#bfbf00;"/>
     </defs>
     <g>
      <use style="fill:#bfbf00;stroke:#bfbf00;" x="651.683125" xlink:href="#m28a03e4620" y="170.880312"/>
     </g>
    </g>
    <g id="text_26">
     <!-- med blue 16 -->
     <g transform="translate(676.883125 174.555312)scale(0.14 -0.14)">
      <use xlink:href="#DejaVuSans-109"/>
      <use x="97.412109" xlink:href="#DejaVuSans-101"/>
      <use x="158.935547" xlink:href="#DejaVuSans-100"/>
      <use x="222.412109" xlink:href="#DejaVuSans-32"/>
      <use x="254.199219" xlink:href="#DejaVuSans-98"/>
      <use x="317.675781" xlink:href="#DejaVuSans-108"/>
      <use x="345.458984" xlink:href="#DejaVuSans-117"/>
      <use x="408.837891" xlink:href="#DejaVuSans-101"/>
      <use x="470.361328" xlink:href="#DejaVuSans-32"/>
      <use x="502.148438" xlink:href="#DejaVuSans-49"/>
      <use x="565.771484" xlink:href="#DejaVuSans-54"/>
     </g>
    </g>
   </g>
  </g>
  <g id="text_27">
   <!-- Montreux large events and the occurence of coliform bacteria in lake water -->
   <defs>
    <path d="M 9.8125 72.90625 
L 24.515625 72.90625 
L 43.109375 23.296875 
L 61.8125 72.90625 
L 76.515625 72.90625 
L 76.515625 0 
L 66.890625 0 
L 66.890625 64.015625 
L 48.09375 14.015625 
L 38.1875 14.015625 
L 19.390625 64.015625 
L 19.390625 0 
L 9.8125 0 
z
" id="DejaVuSans-77"/>
    <path d="M 48.78125 52.59375 
L 48.78125 44.1875 
Q 44.96875 46.296875 41.140625 47.34375 
Q 37.3125 48.390625 33.40625 48.390625 
Q 24.65625 48.390625 19.8125 42.84375 
Q 14.984375 37.3125 14.984375 27.296875 
Q 14.984375 17.28125 19.8125 11.734375 
Q 24.65625 6.203125 33.40625 6.203125 
Q 37.3125 6.203125 41.140625 7.25 
Q 44.96875 8.296875 48.78125 10.40625 
L 48.78125 2.09375 
Q 45.015625 0.34375 40.984375 -0.53125 
Q 36.96875 -1.421875 32.421875 -1.421875 
Q 20.0625 -1.421875 12.78125 6.34375 
Q 5.515625 14.109375 5.515625 27.296875 
Q 5.515625 40.671875 12.859375 48.328125 
Q 20.21875 56 33.015625 56 
Q 37.15625 56 41.109375 55.140625 
Q 45.0625 54.296875 48.78125 52.59375 
z
" id="DejaVuSans-99"/>
   </defs>
   <g transform="translate(129.25 23.6775)scale(0.16 -0.16)">
    <use xlink:href="#DejaVuSans-77"/>
    <use x="86.279297" xlink:href="#DejaVuSans-111"/>
    <use x="147.460938" xlink:href="#DejaVuSans-110"/>
    <use x="210.839844" xlink:href="#DejaVuSans-116"/>
    <use x="250.048828" xlink:href="#DejaVuSans-114"/>
    <use x="291.130859" xlink:href="#DejaVuSans-101"/>
    <use x="352.654297" xlink:href="#DejaVuSans-117"/>
    <use x="416.033203" xlink:href="#DejaVuSans-120"/>
    <use x="475.212891" xlink:href="#DejaVuSans-32"/>
    <use x="507" xlink:href="#DejaVuSans-108"/>
    <use x="534.783203" xlink:href="#DejaVuSans-97"/>
    <use x="596.0625" xlink:href="#DejaVuSans-114"/>
    <use x="637.160156" xlink:href="#DejaVuSans-103"/>
    <use x="700.636719" xlink:href="#DejaVuSans-101"/>
    <use x="762.160156" xlink:href="#DejaVuSans-32"/>
    <use x="793.947266" xlink:href="#DejaVuSans-101"/>
    <use x="855.470703" xlink:href="#DejaVuSans-118"/>
    <use x="914.650391" xlink:href="#DejaVuSans-101"/>
    <use x="976.173828" xlink:href="#DejaVuSans-110"/>
    <use x="1039.552734" xlink:href="#DejaVuSans-116"/>
    <use x="1078.761719" xlink:href="#DejaVuSans-115"/>
    <use x="1130.861328" xlink:href="#DejaVuSans-32"/>
    <use x="1162.648438" xlink:href="#DejaVuSans-97"/>
    <use x="1223.927734" xlink:href="#DejaVuSans-110"/>
    <use x="1287.306641" xlink:href="#DejaVuSans-100"/>
    <use x="1350.783203" xlink:href="#DejaVuSans-32"/>
    <use x="1382.570312" xlink:href="#DejaVuSans-116"/>
    <use x="1421.779297" xlink:href="#DejaVuSans-104"/>
    <use x="1485.158203" xlink:href="#DejaVuSans-101"/>
    <use x="1546.681641" xlink:href="#DejaVuSans-32"/>
    <use x="1578.46875" xlink:href="#DejaVuSans-111"/>
    <use x="1639.650391" xlink:href="#DejaVuSans-99"/>
    <use x="1694.630859" xlink:href="#DejaVuSans-99"/>
    <use x="1749.611328" xlink:href="#DejaVuSans-117"/>
    <use x="1812.990234" xlink:href="#DejaVuSans-114"/>
    <use x="1854.072266" xlink:href="#DejaVuSans-101"/>
    <use x="1915.595703" xlink:href="#DejaVuSans-110"/>
    <use x="1978.974609" xlink:href="#DejaVuSans-99"/>
    <use x="2033.955078" xlink:href="#DejaVuSans-101"/>
    <use x="2095.478516" xlink:href="#DejaVuSans-32"/>
    <use x="2127.265625" xlink:href="#DejaVuSans-111"/>
    <use x="2188.447266" xlink:href="#DejaVuSans-102"/>
    <use x="2223.652344" xlink:href="#DejaVuSans-32"/>
    <use x="2255.439453" xlink:href="#DejaVuSans-99"/>
    <use x="2310.419922" xlink:href="#DejaVuSans-111"/>
    <use x="2371.601562" xlink:href="#DejaVuSans-108"/>
    <use x="2399.384766" xlink:href="#DejaVuSans-105"/>
    <use x="2427.167969" xlink:href="#DejaVuSans-102"/>
    <use x="2462.373047" xlink:href="#DejaVuSans-111"/>
    <use x="2523.554688" xlink:href="#DejaVuSans-114"/>
    <use x="2564.652344" xlink:href="#DejaVuSans-109"/>
    <use x="2662.064453" xlink:href="#DejaVuSans-32"/>
    <use x="2693.851562" xlink:href="#DejaVuSans-98"/>
    <use x="2757.328125" xlink:href="#DejaVuSans-97"/>
    <use x="2818.607422" xlink:href="#DejaVuSans-99"/>
    <use x="2873.587891" xlink:href="#DejaVuSans-116"/>
    <use x="2912.796875" xlink:href="#DejaVuSans-101"/>
    <use x="2974.320312" xlink:href="#DejaVuSans-114"/>
    <use x="3015.433594" xlink:href="#DejaVuSans-105"/>
    <use x="3043.216797" xlink:href="#DejaVuSans-97"/>
    <use x="3104.496094" xlink:href="#DejaVuSans-32"/>
    <use x="3136.283203" xlink:href="#DejaVuSans-105"/>
    <use x="3164.066406" xlink:href="#DejaVuSans-110"/>
    <use x="3227.445312" xlink:href="#DejaVuSans-32"/>
    <use x="3259.232422" xlink:href="#DejaVuSans-108"/>
    <use x="3287.015625" xlink:href="#DejaVuSans-97"/>
    <use x="3348.294922" xlink:href="#DejaVuSans-107"/>
    <use x="3406.158203" xlink:href="#DejaVuSans-101"/>
    <use x="3467.681641" xlink:href="#DejaVuSans-32"/>
    <use x="3499.46875" xlink:href="#DejaVuSans-119"/>
    <use x="3581.255859" xlink:href="#DejaVuSans-97"/>
    <use x="3642.535156" xlink:href="#DejaVuSans-116"/>
    <use x="3681.744141" xlink:href="#DejaVuSans-101"/>
    <use x="3743.267578" xlink:href="#DejaVuSans-114"/>
   </g>
  </g>
 </g>
 <defs>
  <clipPath id="pd8b988c8dc">
   <rect height="434.88" width="669.6" x="108" y="69.12"/>
  </clipPath>
 </defs>
</svg>
